<?xml version="1.0" standalone="no"?>
<!DOCTYPE svg PUBLIC "-//W3C//DTD SVG 20010904//EN"
 "http://www.w3.org/TR/2001/REC-SVG-20010904/DTD/svg10.dtd">
<svg version="1.0" xmlns="http://www.w3.org/2000/svg"
 width="1026.000000pt" height="1026.000000pt" viewBox="0 0 1026.000000 1026.000000"
 preserveAspectRatio="xMidYMid meet">
<metadata>
Created by potrace 1.14, written by Peter Selinger 2001-2017
</metadata>
<g transform="translate(0.000000,1026.000000) scale(0.100000,-0.100000)"
fill="#000000" stroke="none">
<path d="M0 5130 l0 -5130 5130 0 5130 0 0 5130 0 5130 -5130 0 -5130 0 0
-5130z m3368 3008 c-8 -13 -252 -432 -543 -933 -290 -500 -534 -919 -542 -930
-11 -16 -13 131 -13 933 l0 952 556 0 556 0 -14 -22z m2019 9 c-2 -7 -394
-689 -871 -1516 l-866 -1504 667 -1158 668 -1159 882 0 c486 0 883 3 883 7 0
3 -298 524 -662 1157 -365 633 -662 1154 -661 1158 4 12 1734 3013 1742 3021
4 4 190 6 413 5 l405 -3 -872 -1514 -873 -1514 88 -151 c600 -1040 1650 -2866
1650 -2870 0 -3 -766 -6 -1703 -6 l-1703 0 -872 1514 -872 1513 872 1516 873
1516 409 1 c325 0 407 -3 403 -13z m-2562 -5092 c291 -500 535 -920 543 -932
l14 -23 -556 0 -556 0 0 952 c0 803 2 949 13 933 8 -11 252 -429 542 -930z"/>
</g>
</svg>
