<svg xmlns="http://www.w3.org/2000/svg" version="1.1" xmlns:xlink="http://www.w3.org/1999/xlink" width="1026" height="1026"><svg xmlns="http://www.w3.org/2000/svg" width="1026" height="1026" viewBox="0 0 1026 1026"><g fill="none" fill-rule="evenodd"><rect width="1026" height="1026" fill="#000" rx="100"></rect><g transform="translate(242 260)"><path fill="#FFF" d="M535.496459,396.027265 C538.828491,394.58168 540.856684,392.557862 541.436168,389.95581 C543.029749,384.028914 541.001555,352.515172 538.393878,339.504912 C533.178524,313.773508 520.140137,282.404325 505.363299,259.564091 C478.707042,218.364933 427.712464,170.516087 369.619209,132.06354 C353.393661,121.366215 351.510339,119.776072 357.305177,121.944449 C375.84866,128.883254 421.483013,155.626567 446.835431,174.274607 C452.195657,178.322243 456.976398,181.213412 457.411011,180.924295 C458.280237,179.912386 448.13927,126.570319 446.400818,123.390033 C444.227754,119.342397 436.11498,112.837267 410.47282,94.7674609 C365.27308,62.5309272 327.316889,38.6787835 287.187632,17.1395748 C259.227537,2.10549633 250.390408,-1.50846484 246.478893,0.515353415 C244.885312,1.3827041 243.581473,2.82828857 243.581473,3.69563925 C243.581473,4.56298993 248.072473,15.4048735 253.57757,27.8368999 C262.269827,47.4968487 266.760827,59.3506414 266.760827,62.9646026 C266.760827,63.5428364 260.965989,61.9526934 253.867312,59.3506414 C241.843022,55.013888 240.539183,54.8693295 235.323829,56.7485893 C213.013701,64.5547455 189.109992,89.7079153 181.721573,112.837267 L179.258767,120.498865 L184.474121,133.075449 C187.371541,140.158813 189.109992,145.941151 188.385637,146.230268 C187.661283,146.519385 174.188283,142.32719 158.397348,136.978527 C142.171801,131.485307 128.553931,127.582228 127.250092,128.160462 C123.193705,129.750605 124.497544,135.243826 132.175705,148.687762 C156.948639,192.199854 223.154668,281.97065 252.998086,312.183365 C262.994182,322.447015 259.807021,321.579664 312.974663,327.940236 L342.528339,331.409639 L363.824371,345.865484 C404.677982,373.620705 439.736754,388.943901 477.548075,395.738148 C493.48388,398.629317 528.977266,398.773875 535.496459,396.027265 Z" transform="matrix(1 0 0 -1 0 398)"></path><path fill="#FFF" d="M160.239229,493.836113 C172.698796,470.093026 192.112539,449.534987 214.858492,436.215694 L225,430.135148 L216.597036,416.38153 C211.81604,408.853234 206.31065,401.180163 204.13747,399.442864 C201.96429,397.56079 181.391517,386.123571 158.210928,373.817703 C74.0364133,328.937477 0.438042814,290.427348 0.00340676771,291.006448 C-0.720986643,291.730322 114.312687,478.345197 120.107834,485.873493 C122.425893,488.768991 150.387479,505.852432 153.140174,505.997207 C153.57481,506.141982 156.762141,500.640535 160.239229,493.836113 Z" transform="matrix(1 0 0 -1 0 797)"></path><path fill="#000" fill-rule="nonzero" d="M484.636575,256.973442 C430.866113,247.998683 378.979791,220.205883 332.311089,175.621599 C296.65736,141.60437 249.119054,80.2286031 218.103208,28.2618569 C211.291317,16.9710319 209.986912,15.6682443 238.104081,47.8036695 C279.120363,94.848774 323.759991,139.722566 356.804911,167.370612 C401.589473,204.717187 452.606192,235.984087 499.129961,254.657375 L510,259 L502.753307,259 C498.840093,258.855246 490.578863,257.986721 484.636575,256.973442 Z" transform="matrix(1 0 0 -1 0 280)"></path></g></g></svg><style>@media (prefers-color-scheme: light) { :root { filter: none; } }
@media (prefers-color-scheme: dark) { :root { filter: none; } }
</style></svg>