<svg xmlns="http://www.w3.org/2000/svg" width="200" height="100" viewBox="0 0 200 100"><defs><clipPath id="a"><path d="M200,0 L200,100 L0,100 L0,0 L200,0 Z"/></clipPath><clipPath id="b"><path d="M45.2400933,0 C47.4816561,0 49.2110038,0.715188304 50.5355645,2.14372339 C52.4714409,4.18448797 52.4733011,6.63273841 52.4733011,10 L52.473164,10.4138484 C52.470719,12.8669353 52.4246425,14.7847854 51.5559037,16.4281387 L53.4906128,19.7968456 L46.8690027,19.7968456 C46.3595562,19.8988885 45.851429,20 45.2400933,20 C42.9985305,20 41.3680446,19.2878434 39.9415945,17.8593075 C38.1755135,16.0906454 38.0151841,14.0136384 38.0038266,11.2992504 L38.0039438,9.64472821 C38.0062847,6.36246113 38.0724546,4.01559707 39.9415945,2.14372339 C41.2661553,0.81722658 42.9985305,0 45.2400933,0 Z M85.3845442,0 C87.6261085,0 89.2535654,0.81722658 90.6800154,2.14372339 C92.482383,3.94874443 92.6082967,6.19543384 92.6170917,9.29661511 L92.6170919,10.6837707 C92.6082991,13.7034166 92.4824004,15.9592859 90.6800154,17.8593075 C89.3554547,19.2878434 87.6261085,20 85.3845442,20 C83.1429814,20 81.4106061,19.1858051 80.0860469,17.8593075 C78.2836793,16.0542871 78.1577643,13.8049695 78.1489704,10.7034261 L78.1480598,9.66631827 C78.1440158,6.46997448 78.1161874,4.11646249 80.0860469,2.14372339 C81.4106061,0.715188304 83.1429814,0 85.3845442,0 Z M62.0499579,0.206185563 L62.0499579,12.9593691 C62.0499579,15.2042104 63.3759618,16.5312311 65.4137476,16.5312311 C67.4515318,16.5312311 68.7745083,15.2042104 68.7745083,12.9593691 L68.7745083,0.206185563 L72.544012,0.206185563 L72.544012,13.0624619 C72.544012,17.2460284 69.3874268,20 65.4137476,20 C61.4400669,20 58.1775123,17.2460284 58.1775123,13.0624619 L58.1775123,0.206185563 L62.0499579,0.206185563 Z M7.53900635,0.103092782 C10.1881264,0.103092782 12.2276163,0.714265214 13.857844,2.34687685 L11.4114516,4.69375378 C10.1887809,3.46929493 8.66176253,3.3687082 7.43909169,3.3687082 C5.40130701,3.3687082 4.38110127,4.49218103 4.38110127,5.81867783 C4.38110127,6.32886906 4.58514245,6.83866316 4.9926993,7.24681611 C5.40025629,7.65496906 6.01237983,7.85838551 6.82749367,8.0624619 L9.17094389,8.36870807 C11.00495,8.57278462 12.125333,9.08363331 12.940447,9.8999392 C13.9593392,10.9203213 14.4694414,12.3466113 14.4694414,14.0812612 C14.4694414,17.8566761 11.2088622,20 7.13329268,20 C4.17850487,20 1.93589555,19.3886956 0,17.4499699 L2.4463924,15.0000003 C3.66906324,16.224458 5.40117571,16.6343235 7.13329268,16.6343235 C9.37485594,16.6343235 10.5969968,15.8169647 10.5969968,14.1843539 C10.5969968,13.4700863 10.3929556,12.9612151 9.98539875,12.5530623 C9.57784175,12.1449093 9.17054983,12.0415535 8.2535467,11.837477 L5.91009648,11.5312308 C4.2798688,11.3271544 2.95570723,10.7162449 2.14059339,9.8999392 C1.22359026,8.98159519 0.714540353,7.65444293 0.714540353,6.0218313 C0.714540353,2.55253163 3.25965841,0.103092782 7.53900635,0.103092782 Z M32.9112445,0.206185563 L32.9112445,3.57186167 L23.8432435,3.57186167 L23.8432435,8.16555476 L31.5851056,8.16555476 L31.5851056,11.6343236 L23.8432435,11.6343236 L23.8432435,16.4281387 L32.9112445,16.4281387 L32.9112445,19.7968456 L19.970798,19.7968456 L19.970798,0.206185563 L32.9112445,0.206185563 Z M101.991553,0.206185563 L101.991553,19.7968456 L98.2220488,19.7968456 L98.2220488,0.206185563 L101.991553,0.206185563 Z M116.866708,0.206185563 L124,19.7968456 L120.024613,19.7968456 L118.904359,16.3280767 L111.976951,16.3280767 L110.753755,19.7968456 L106.778368,19.7968456 L113.91166,0.206185563 L116.866708,0.206185563 Z M45.1371514,3.47180106 C44.1182585,3.47180106 43.2002039,3.87837097 42.690759,4.49060032 C41.977534,5.30690606 41.7733617,6.22458547 41.7733617,9.99999981 L41.7739326,10.3354316 C41.7862032,13.831119 41.9991469,14.7208622 42.690759,15.5124319 C43.2002039,16.1246615 44.1182585,16.5312311 45.1371514,16.5312311 C46.1560428,16.5312311 47.0740974,16.1246615 47.5835438,15.5124319 C48.2967673,14.6961257 48.4979121,13.7754141 48.4979121,9.99999981 L48.4973493,9.66457617 C48.4852513,6.16906162 48.2751545,5.28216952 47.5835438,4.49060032 C47.0740974,3.87837097 46.1560428,3.47180106 45.1371514,3.47180106 Z M85.3845442,3.47180106 C84.3656528,3.47180106 83.4475982,3.87837097 82.9381518,4.49060032 C82.2249268,5.30690606 82.0207544,6.22458547 82.0207544,9.99999981 C82.0207544,13.7754141 82.2249268,14.6961257 82.9381518,15.5124319 C83.4475982,16.1246615 84.3656528,16.5312311 85.3845442,16.5312311 C86.4034371,16.5312311 87.3184626,16.1246615 87.827909,15.5124319 C88.5411341,14.6961257 88.7453064,13.7754141 88.7453064,9.99999981 C88.7453064,6.22458547 88.5411341,5.30690606 87.827909,4.49060032 C87.3184626,3.87837097 86.4034371,3.47180106 85.3845442,3.47180106 Z M115.440655,5.91873844 L112.994263,13.0624619 L117.887047,13.0624619 L115.440655,5.91873844 Z"/></clipPath><clipPath id="c"><path d="M20,17.4988391 L20,20 L1.77062448,20 L4.27178522,17.4988391 L20,17.4988391 Z M2.50116074,0 L2.50116074,15.7282161 L0,18.229377 L0,0 L2.50116074,0 Z M20,12.4996134 L20,15.0007735 L6.77294596,15.0007735 L9.27100981,12.4996134 L20,12.4996134 Z M7.50038691,0 L7.50038691,10.7289896 L5.00232147,13.2301505 L5.00232147,0 L7.50038691,0 Z M20,7.50038712 L20,9.99845255 L11.7721721,9.99845255 L14.2733313,7.50038712 L20,7.50038712 Z M12.5027084,0 L12.5027084,5.72976333 L10.0015476,8.22782875 L10.0015476,0 L12.5027084,0 Z M20,0 L20,4.99922623 L15.0007738,4.99922623 L15.0007738,0 L20,0 Z"/></clipPath></defs><g clip-path="url(#a)"><g clip-path="url(#b)" transform="translate(24 41)"><polygon fill="#9CA3AF" points="0 0 124 0 124 20 0 20 0 0"/></g><g clip-path="url(#c)" transform="translate(156 41)"><polygon fill="#9CA3AF" points="0 0 20 0 20 20 0 20 0 0"/></g></g></svg>