<svg xmlns="http://www.w3.org/2000/svg" width="200" height="100" viewBox="0 0 200 100">
  <g fill="none" fill-rule="evenodd">
    <path fill="#9CA3AF" fill-rule="nonzero" d="M57.1892523,64.7811834 C56.9990654,64.7464453 56.4976636,64.6074929 56.0654206,64.5032786 C53.2299065,63.7737786 50.8093458,61.7242309 49.8238318,59.1883498 C49.4953271,58.3893736 49.4261682,57.8509331 49.4088785,56.3745639 C49.4088785,54.7592424 49.4607477,54.4465996 49.8584112,53.5781471 C50.7228972,51.7196589 51.9850467,50.6254089 55.6331776,48.5584921 C58.1228972,47.1342301 59.246729,46.2136706 59.7135514,45.1715277 C60.1457944,44.233599 60.111215,43.6083133 59.6271028,42.5314323 C58.8490654,40.8640036 57.2929907,40.1171346 54.803271,40.2560869 C52.953271,40.3429322 51.2588785,41.1071703 49.7373832,42.5314323 L48.7,43.48673 L46.85,41.7498251 C45.8299065,40.7945274 45,39.926075 45,39.7871226 C45,39.2313131 48.1640187,36.8170153 49.8757009,36.0701463 C51.4317757,35.4101224 53.4719626,35.0106343 55.3738318,35.0106343 C57.4140187,35.0106343 58.6934579,35.27117 60.353271,36.0527772 C65.7476636,38.5712892 67.4074766,44.9109919 63.811215,49.1490398 C62.8775701,50.2432898 61.771028,51.0422661 58.9873832,52.6402185 C56.3766355,54.1339567 55.2528037,55.1066234 55.0971963,55.9924449 C54.8378505,57.3993378 55.8925234,58.8409688 57.6042056,59.4141474 C59.5406542,60.0568022 62.3415888,59.4141474 63.6901869,58.0072545 C64.0014019,57.6772426 64.3471963,57.4167068 64.4509346,57.4167068 C64.5546729,57.4167068 65.4537383,58.2504212 66.4392523,59.257826 L68.2546729,61.0815761 L67.4074766,61.8631833 C66.335514,62.853219 64.6757009,63.7737786 63.0158879,64.3295881 C61.9785047,64.6596001 61.2350467,64.7638144 59.6098131,64.8159215 C58.4686916,64.8332905 57.3794393,64.8332905 57.1892523,64.7811834 Z" transform="matrix(1 0 0 -1 0 99.837)"/>
    <path fill="#9CA3AF" fill-rule="nonzero" d="M118.135514,64.5807279 C114.556542,63.7817517 111.963084,62.3053825 109.404206,59.61318 C107.709813,57.824168 106.67243,56.1393703 105.928972,53.9335012 C104.148131,48.6880485 105.185514,43.4425959 108.764486,39.6387743 C110.942991,37.2939527 113.519159,35.8696908 116.735047,35.227036 C118.515888,34.8622859 122.285047,34.9491312 124.014019,35.4007264 C125.915888,35.8870598 128.803271,37.398167 130.065421,38.5618933 L131.189252,39.6040362 L130.290187,40.62881 C129.806075,41.1846196 129.010748,42.035703 128.543925,42.4872982 L127.696729,43.3210126 L126.572897,42.4699292 C124.463551,40.8719767 122.457944,40.1772148 119.916355,40.1772148 C119.069159,40.1772148 117.928037,40.2987981 117.357477,40.4377505 C111.686449,41.9314887 109.214019,48.2711914 112.101402,53.8987631 C112.983178,55.6009298 114.05514,56.8167632 115.628505,57.8589061 C117.599533,59.1963229 118.809813,59.5437038 121.420561,59.5263348 C123.32243,59.5263348 123.720093,59.4742276 124.722897,59.0747395 C126.175234,58.5015609 127.178037,57.8762752 128.111682,56.9730847 C128.699533,56.3999061 128.907009,56.2956918 129.183645,56.4346442 C129.373832,56.5214894 130.307477,57.2857275 131.275701,58.1368109 L133.021963,59.6826562 L132.278505,60.4642634 C130.601402,62.1837992 128.025234,63.6601683 125.483645,64.3375612 C123.668224,64.8238946 119.778037,64.9454779 118.135514,64.5807279 Z" transform="matrix(1 0 0 -1 0 99.793)"/>
    <path fill="#9CA3AF" fill-rule="nonzero" d="M72.4214953,64.7915714 C72.3523364,64.5657738 72.2140187,63.7841666 71.453271,59.4419045 C71.2630841,58.3476544 71.021028,57.0102377 70.9345794,56.4891662 C70.1565421,52.1642732 69.8107477,50.2536778 69.1191589,46.2414276 C68.6869159,43.7055466 68.0990654,40.3185821 67.8224299,38.6858915 C67.3383178,35.9242128 67.321028,35.7157843 67.5976636,35.5247247 C67.8224299,35.3510342 69.5514019,35.2989271 74.8247664,35.2989271 C80.7724299,35.2989271 81.8098131,35.3336652 82.121028,35.5594628 C82.3457944,35.7157843 83.3831776,36.8968796 84.4378505,38.2169272 L86.3570093,40.5964869 L80.4266355,40.648594 C77.1588785,40.6659631 74.3925234,40.7180702 74.288785,40.7528083 C74.0813084,40.8396536 74.1158879,41.1001893 74.6345794,43.9834513 C74.7728972,44.7997966 75.2915888,47.6830587 75.7757009,50.4099993 C76.2425234,53.1369399 76.761215,56.0202019 76.9168224,56.8365472 C77.7640187,61.4567141 78.3172897,64.7568333 78.2481308,64.8784167 C78.2135514,64.9478929 76.8995327,65 75.3261682,65 C73.1995327,65 72.4560748,64.9478929 72.4214953,64.7915714 Z" transform="matrix(1 0 0 -1 0 100.299)"/>
    <path fill="#9CA3AF" fill-rule="nonzero" d="M84.2130841,64.88312 C84.1439252,64.8310129 84.282243,64.3794176 84.5070093,63.8930843 C84.7317757,63.3893819 85.821028,60.9577151 86.9275701,58.4739411 C88.0341121,55.9901672 89.4518692,52.7942623 90.0915888,51.3700003 L91.2327103,48.7820121 L91.0252336,47.2882739 C90.9042056,46.4719286 90.7313084,45.4124167 90.6275701,44.9260833 C90.2817757,43.1370713 89.2271028,37.0752734 89.1406542,36.3110353 C89.0542056,35.5815352 89.088785,35.49469 89.4518692,35.4078448 C90.0224299,35.2515233 94.5004673,35.2688924 94.7252336,35.4252138 C94.8808411,35.5294281 95.2785047,37.631083 96.8,46.2808691 L97.2149533,48.6777978 L102.177103,54.8785481 C104.908879,58.2828816 107.778972,61.8782746 108.574299,62.8509414 C109.369626,63.8236081 110.009346,64.7094296 110.009346,64.8136438 C110.009346,64.9178581 108.781776,64.9873343 106.464953,64.9873343 L102.93785,64.9873343 L100.275234,61.652477 C98.8228972,59.8113579 97.0247664,57.5360125 96.2985981,56.615453 C95.5551402,55.6775243 94.8981308,54.9132862 94.828972,54.9132862 C94.7598131,54.9132862 93.7051402,57.1886316 92.4602804,59.9503103 L90.2299065,64.9873343 L87.2733645,64.9873343 C85.6308411,64.9873343 84.2649533,64.9352272 84.2130841,64.88312 Z" transform="matrix(1 0 0 -1 0 100.286)"/>
    <path fill="#9CA3AF" fill-rule="nonzero" d="M137.51729,64.4441904 C137.430841,64.2183928 136.929439,61.5435594 136.393458,58.4866068 C135.857477,55.4296543 134.906542,50.0799874 134.284112,46.5888086 C133.661682,43.0976299 133.004673,39.3459154 132.814486,38.2516653 C132.624299,37.1574153 132.434112,36.0457962 132.382243,35.7852605 L132.278505,35.2989271 L140.57757,35.2989271 L148.859346,35.2989271 L150.45,37.6958558 C151.314486,39.0159035 152.023364,40.1796297 152.023364,40.3012131 C152.023364,40.4575345 150.536449,40.5096416 145.626168,40.5096416 C139.643925,40.5096416 139.228972,40.5270107 139.228972,40.8222845 C139.246262,40.9786059 139.540187,42.7676179 139.903271,44.7650585 L140.542991,48.4125587 L143.845327,48.4646658 L147.130374,48.4994039 L149.049533,50.9137017 C150.121495,52.2337494 150.985981,53.4148447 150.985981,53.519059 C150.985981,53.6580113 149.620093,53.7101185 146.231308,53.7101185 C143.620561,53.7101185 141.476636,53.7448566 141.476636,53.7622256 C141.476636,53.8664399 142.341121,58.6429283 142.42757,59.0597854 L142.514019,59.4419045 L147.164953,59.4419045 L151.815888,59.4419045 L153.008879,60.8835355 C154.910748,63.1762499 156,64.5484047 156,64.6873571 C156,64.7742024 151.867757,64.8263095 146.836449,64.8263095 L137.672897,64.8263095 L137.51729,64.4441904 Z" transform="matrix(1 0 0 -1 0 100.125)"/>
  </g>
</svg>
