<svg xmlns="http://www.w3.org/2000/svg" width="200" height="100" viewBox="0 0 200 100"><path fill="#9CA3AF" d="M75.1690141,8.5 C69.3380282,8.5 65.1336338,12.325 65.1336338,18.0625 C65.1336338,23.8 69.8609577,27.625 75.6973521,27.625 C79.2199437,27.625 82.3257465,26.2225 84.2481127,23.858446 L80.207662,21.510304 C79.1408451,22.684392 77.5193239,23.369696 75.6973521,23.369696 C73.1672113,23.369696 71.0176901,22.041554 70.2199437,19.916554 L85.019493,19.916554 C85.1354366,19.321554 85.2043944,18.705304 85.2043944,18.057196 C85.2043944,12.325 81.0054085,8.5 75.1690141,8.5 Z M70.1776901,16.203108 C70.8378592,14.083446 72.6442817,12.75 75.1690141,12.75 C77.6988169,12.75 79.5052394,14.083446 80.160338,16.203108 L70.1776901,16.203108 Z M68.9841127,2.65625 L54.348507,28.15625 L39.707831,2.65625 L45.1953803,2.65625 L54.3434366,18.59375 L63.4911549,2.65625 L68.9841127,2.65625 Z M19.5158535,0 L39.0317746,34 L0,34 L19.5158535,0 Z M106.43662,18.0625 C106.43662,21.25 108.507042,23.375 111.71831,23.375 C113.894535,23.375 115.526535,22.381554 116.366197,20.76125 L120.422535,23.114696 C118.742873,25.930304 115.595155,27.625 111.71831,27.625 C105.881915,27.625 101.683268,23.8 101.683268,18.0625 C101.683268,12.325 105.887324,8.5 111.71831,8.5 C115.595155,8.5 118.737803,10.194696 120.422535,13.010304 L116.366197,15.36375 C115.526535,13.743446 113.894535,12.75 111.71831,12.75 C108.512451,12.75 106.43662,14.875 106.43662,18.0625 Z M150,2.65625 L150,27.09375 L145.246648,27.09375 L145.246648,2.65625 L150,2.65625 Z M132.042254,8.5 C126.211268,8.5 122.007211,12.325 122.007211,18.0625 C122.007211,23.8 126.739606,27.625 132.570592,27.625 C136.093183,27.625 139.198986,26.2225 141.121352,23.858446 L137.080901,21.510304 C136.014085,22.684392 134.392563,23.369696 132.570592,23.369696 C130.040451,23.369696 127.89093,22.041554 127.093183,19.916554 L141.892732,19.916554 C142.008676,19.321554 142.077296,18.705304 142.077296,18.057196 C142.077296,12.325 137.878648,8.5 132.042254,8.5 Z M127.05093,16.203108 C127.711437,14.083446 129.512451,12.75 132.042254,12.75 C134.572056,12.75 136.378479,14.083446 137.033577,16.203108 L127.05093,16.203108 Z M100.098592,9.03125 L100.098592,14.179054 C99.5705915,14.025 99.0104789,13.91875 98.4084507,13.91875 C95.339831,13.91875 93.1267606,16.04375 93.1267606,19.23125 L93.1267606,27.09375 L88.3734085,27.09375 L88.3734085,9.03125 L93.1267606,9.03125 L93.1267606,13.91875 C93.1267606,11.22 96.2481127,9.03125 100.098592,9.03125 Z" transform="translate(25 33)"/></svg>