<svg xmlns="http://www.w3.org/2000/svg" width="48" height="48" viewBox="0 0 750 750" stroke="#f1f5f9" fill="#f1f5f9"><g transform="translate(-138.000000, -138.000000)"><path d="M516.450549,138 L218,435.307291 L281.93656,499 L435.748002,345.780167 L589.554447,499 L653.491008,435.307291 L499.684562,282.087459 L589.554447,192.555358 L888,489.862649 L888,362.482209 L662.663341,138 L516.450549,138 Z M362.482209,138 L138,363.339974 L138,509.546681 L435.312268,808 L499,744.063916 L345.780167,590.248626 L499,436.443328 L435.312268,372.507244 L282.087459,526.317538 L192.560335,436.443328 L489.867626,138 L362.482209,138 Z M527,281.936084 L680.219833,435.741382 L527,589.546681 L590.692709,653.48776 L743.917518,499.677466 L833.444642,589.546681 L536.137351,888 L663.522768,888 L888,662.65503 L888,516.443328 L590.692709,218 L527,281.936084 Z M590.253622,680.222697 L436.448323,527 L372.51224,590.686854 L526.317538,743.914528 L436.448323,833.445394 L138,536.132248 L138,663.515909 L363.339974,888 L509.551677,888 L808,590.686854 L744.063916,527 L590.253622,680.222697 Z"></path></g></svg>