<?xml version="1.0" encoding="utf-8"?>
<!-- Generator: Adobe Illustrator 17.0.2, SVG Export Plug-In . SVG Version: 6.00 Build 0)  -->
<!DOCTYPE svg PUBLIC "-//W3C//DTD SVG 1.1//EN" "http://www.w3.org/Graphics/SVG/1.1/DTD/svg11.dtd">
<svg version="1.1" id="sheep" xmlns="http://www.w3.org/2000/svg" xmlns:xlink="http://www.w3.org/1999/xlink" x="0px" y="0px"
	 width="159.8px" height="136.1px" viewBox="0 0 159.8 136.1" enable-background="new 0 0 159.8 136.1" xml:space="preserve">
<ellipse id="shadow" opacity="0.6" fill="#919191" cx="90.6" cy="130" rx="69.2" ry="6.1"/>
<g id="legs">
	<rect x="76.8" y="92.6" width="8" height="39.5"/>
	<rect x="96.3" y="92.6" width="8" height="39.5"/>
	<rect x="113.8" y="92.6" width="8" height="39.5"/>
	<rect x="132.8" y="92.1" width="8" height="40"/>
</g>
<circle id="body" fill="#FFFFFF" cx="102.6" cy="56.3" r="56.3"/>
<g id="head">
	
		<ellipse id="back-ear" transform="matrix(-0.785 -0.6194 0.6194 -0.785 -11.684 121.9189)" fill="#211E21" cx="15.3" cy="63" rx="11.7" ry="19.8"/>
	<path id="face" fill="#211E21" d="M89.5,73.6c0-21.9-17.8-39.7-39.7-39.7S10.1,51.7,10.1,73.6c0,8.6,2.7,16.5,7.4,23
		c-3.3,6-3.2,10.6-1.1,14.9c3.7,7.6,9.4,11.3,18.1,10.9c12.7-0.6,15.3-3.7,24-7.7c0,0,11-5.7,20.2-13.3
		C90.5,89.6,89.5,73.6,89.5,73.6z"/>
	
		<ellipse id="front-ear_1_" transform="matrix(6.653916e-02 -0.9978 0.9978 6.653916e-02 20.6734 98.2963)" fill="#211E21" cx="62.9" cy="38.1" rx="11.3" ry="19.6"/>
	<g id="left-eye">
		<ellipse id="eye_1_" fill="#FFFFFF" cx="54.3" cy="65.3" rx="8.2" ry="8.2"/>
		<ellipse id="eye-ball_1_" cx="54.1" cy="68.7" rx="4.2" ry="4.1"/>
	</g>
	<g id="right-eye">
		<ellipse id="eye" fill="#FFFFFF" cx="19" cy="85.6" rx="8.2" ry="8.2"/>
		<ellipse id="eye-ball" cx="17.7" cy="89.7" rx="4.2" ry="4.1"/>
	</g>
</g>
<path id="grass" fill="#63A14D" d="M29.4,135.5c6.8,0.1,27.4,0.2,27.4,0.2s-0.4-10,6.8-11.8c-4.9-0.6-8.7,3.2-11.6,4.9
	c-0.2-10,5.9-12,5.8-12c-6.6,1.1-7.7,4.1-10.3,7.6C46,118,43.3,108,36,102.1c3.1,6.8,6.4,12.7,4.5,24.4c-3.9-11.7-6.7-12.8-9.1-14.4
	c4.9,9.2,2.8,16.2,2.8,16.2s-4.7-5-8.9-5.9C29.4,125.8,30.6,131.3,29.4,135.5z"/>
</svg>
