<svg xmlns="http://www.w3.org/2000/svg" width="200" height="100" viewBox="0 0 200 100">
  <g fill="none" fill-rule="evenodd">
    <path fill="#9CA3AF" fill-rule="nonzero" d="M60.5812757 42.1008012L60.5812757 55.710142C60.5812757 56.1695257 60.213321 56.5419299 59.7594258 56.5419299L55.5146512 56.5419299C55.0608389 56.5417275 54.6928013 56.1694419 54.6928013 55.710142L54.6928013 33.5738751C54.6928013 33.1144913 55.060756 32.7420872 55.5146512 32.7420872L59.4427165 32.7420872C59.8966116 32.7420872 60.2645663 33.1144913 60.2645663 33.5738751L60.2645663 36.6912459C60.2645663 36.6912459 61.668741 32.2444081 65.835969 32.2444081 65.835969 32.2444081 69.957901 31.7401275 71.6338514 36.3703401 71.6338514 36.3703401 73.0380261 32.2444081 77.295846 32.2444081 77.295846 32.2444081 83.6278583 31.8633553 83.6278583 38.4945532L83.6760532 42.1466449 83.6760532 55.7559857C83.6760532 56.2153694 83.3080985 56.5877736 82.8542034 56.5877736L78.6090664 56.5877736C78.1552541 56.5877736 77.7874165 56.2152856 77.7872165 55.7559857L77.7484432 40.9088653C77.8691116 37.5468725 75.1817931 37.7914944 75.1817931 37.7914944 71.7998158 37.8527416 72.125222 42.1466449 72.125222 42.1466449L72.125222 55.7559857C72.125222 56.2153694 71.7572673 56.5877736 71.3033721 56.5877736L67.0585975 56.5877736C66.6047852 56.5877736 66.2369476 56.2152856 66.2367476 55.7559857L66.2367476 41.2448078C66.2367476 41.2448078 66.4849695 37.7606875 63.4649974 37.7606875 63.4653598 37.7606875 60.4758267 37.3634977 60.5812757 42.1008012zM170 42.060092L170 55.669066C169.9998 56.1283659 169.631962 56.5006515 169.17815 56.5008539L164.763425 56.5874068C164.309613 56.5874068 163.941775 56.2149188 163.941575 55.7556189L163.941575 41.2448078C163.941575 41.2448078 164.189797 37.7606875 161.170187 37.7606875 161.170187 37.7606875 158.286103 37.6169217 158.286103 43.0796556L158.286103 55.7097752C158.285903 56.1690751 157.918066 56.5413607 157.464253 56.5415631L153.219116 56.5415631C152.765304 56.5413607 152.397467 56.1690751 152.397267 55.7097752L152.397267 33.5738751C152.397467 33.1145751 152.765304 32.7422895 153.219116 32.7420872L157.147182 32.7420872C157.601077 32.7420872 157.969032 33.1144913 157.969032 33.5738751L157.969032 36.6912459C157.969032 36.6912459 159.373206 32.2444081 163.540434 32.2444081 163.540434 32.2444081 168.004441 31.5589533 169.507905 36.2841539 169.508267 36.2837872 170 37.2586074 170 42.060092zM139.350944 32.1527207C133.922677 32.1527207 129.521721 36.7829333 129.521721 44.5763604 129.521721 51.4378769 132.918918 57 139.350944 57 145.420602 57 149.180167 51.4378769 149.180167 44.5763604 149.180167 36.9204643 144.779574 32.1527207 139.350944 32.1527207zM142.77713 44.8514225C142.77713 47.7854186 142.414762 49.344104 142.414762 49.344104 141.899113 52.4457046 139.674538 52.4501056 139.346596 52.4336019 138.992562 52.4479051 136.749144 52.4156311 136.284951 49.344104 136.284951 49.344104 135.922584 47.7854186 135.922584 44.8514225L135.922584 44.3625454C135.922584 41.4285493 136.284951 39.8698639 136.284951 39.8698639 136.749144 36.7983367 138.992925 36.7660628 139.346596 36.7799993 139.674538 36.7634955 141.899113 36.7675298 142.414762 39.8698639 142.414762 39.8698639 142.77713 41.4285493 142.77713 44.3625454L142.77713 44.8514225zM127.057984 36.6604389L127.057984 33.4843882C127.057784 33.0250883 126.689946 32.6526003 126.236134 32.6526003L112.205258 32.6526003C111.751363 32.6526003 111.383409 33.0250044 111.383409 33.4843882L111.383409 36.6358667C111.383609 37.0951666 111.751446 37.4674522 112.205258 37.4676546L119.523998 37.4676546 110.861237 50.1865276C110.861237 50.1865276 110.519887 50.7021774 110.53112 51.2717394L110.53112 55.14058C110.53112 55.14058 110.474591 56.467113 111.961023 55.6973057 111.961023 55.6973057 114.601233 54.0828744 119.028279 54.0828744 119.028279 54.0828744 123.400245 54.027862 126.31513 55.8363038 126.31513 55.8363038 127.525076 56.3930296 127.525076 55.1688197L127.525076 51.8013257C127.525076 51.8013257 127.634873 50.9101244 126.480007 50.3537654 126.480007 50.3537654 123.125208 48.4892109 118.725702 48.79508L127.057984 36.6604389zM51.4166354 52.5832357L50.0878332 50.5360399C49.6649502 49.7717339 49.695389 48.9157406 49.695389 48.9157406L49.695389 39.4723074C49.8765729 31.3121308 40.93805 32.0151896 40.93805 32.0151896 32.9920521 32.0151896 31.8183433 38.27377 31.8183433 38.27377 31.4871393 39.5320876 32.4503125 39.5625278 32.4503125 39.5625278L36.3330819 39.9611845C36.3330819 39.9611845 36.9951276 40.1144858 37.2361021 39.3168056 37.2361021 39.3168056 37.7474028 36.5863555 40.606846 36.5863555 43.7181346 36.5863555 43.6858839 39.2889327 43.6858839 39.2889327L43.6858839 41.5514104C37.4749024 41.7615579 34.5966161 43.506552 34.5966161 43.506552 30.7616792 45.7070491 31.0030161 50.077603 31.0030161 50.077603 31.0030161 57.1984115 37.7068176 56.8925424 37.7068176 56.8925424 41.9947141 56.8925424 44.5312876 53.7142911 44.5312876 53.7142911 45.2860995 55.0595283 46.675417 56.3424181 46.675417 56.3424181 47.3704382 57.1052571 48.0948111 56.4649125 48.0948111 56.4649125L51.2354516 53.7450981C51.929748 53.2250473 51.4166354 52.5832357 51.4166354 52.5832357zM39.7994908 52.4952158C37.7825525 52.4952158 37.0328138 50.4667242 37.3676415 48.4730739 37.7028316 46.4794236 39.4436458 44.9126697 43.6862463 44.9585133L43.6862463 46.1706205C43.8366288 51.4657499 41.4783402 52.4952158 39.7994908 52.4952158zM107.824958 52.5832357L106.496518 50.5360399C106.073635 49.7717339 106.103712 48.9157406 106.103712 48.9157406L106.103712 39.4723074C106.284896 31.3121308 97.3463729 32.0151896 97.3463729 32.0151896 89.400375 32.0151896 88.2266662 38.27377 88.2266662 38.27377 87.8954622 39.5320876 88.8586354 39.5625278 88.8586354 39.5625278L92.7414048 39.9611845C92.7414048 39.9611845 93.4034505 40.1144858 93.644425 39.3168056 93.644425 39.3168056 94.1557257 36.5863555 97.0151689 36.5863555 100.126458 36.5863555 100.094207 39.2889327 100.094207 39.2889327L100.094207 41.5514104C93.8835876 41.7615579 91.004939 43.506552 91.004939 43.506552 87.1700021 45.7070491 87.411339 50.077603 87.411339 50.077603 87.411339 57.1984115 94.1151405 56.8925424 94.1151405 56.8925424 98.403037 56.8925424 100.939611 53.7142911 100.939611 53.7142911 101.694785 55.0595283 103.083378 56.3424181 103.083378 56.3424181 103.778399 57.1052571 104.503134 56.4649125 104.503134 56.4649125L107.643412 53.7450981C108.338071 53.2250473 107.824958 52.5832357 107.824958 52.5832357L107.824958 52.5832357zM96.2078137 52.4952158C94.1908754 52.4952158 93.4411367 50.4667242 93.7759644 48.4730739 94.1111545 46.4794236 95.8519687 44.9126697 100.094207 44.9585133L100.094207 46.1706205C100.244952 51.4657499 97.8870254 52.4952158 96.2078137 52.4952158zM119.196482 70.3061672C119.196482 70.3061672 118.839884 70.9031717 119.27799 71.0365786 119.27799 71.0365786 119.77286 71.2225079 120.389992 70.6713729 120.389992 70.6713729 124.890761 66.8880099 124.999196 59.9998732 124.999196 59.9998732 125.032309 59.1395564 124.673528 58.9042561 124.673528 58.9042561 123.263512 57.7039444 118.193278 58.0691501 118.193278 58.0691501 113.773653 58.3562725 111.360798 60.4176013 111.360798 60.4176013 111.143928 60.6000291 111.143928 60.8346291 111.143928 60.8346291 111.091894 61.3412951 112.418219 61.1217515 112.418219 61.1217515 116.83748 60.5212455 119.467569 60.8346291 119.467569 60.8346291 120.823731 60.9911458 121.203252 61.4351351 121.203252 61.4351351 121.826934 61.9309465 121.501266 63.5741971 121.501266 63.5748974 120.606133 67.7493771 119.196482 70.3061672L119.196482 70.3061672z"/>
    <path fill="#9CA3AF" fill-rule="nonzero" d="M118.305352,63.6977998 C118.305352,63.6977998 118.965421,64.5206506 117.900359,65.2304032 C117.900359,65.2304032 106.52308,73.9876368 87.4196435,73.9876368 C87.4196435,73.9876368 67.7551118,74.9211348 51.3352533,60.5650141 C51.3352533,60.5650141 50.7596031,60.0786568 51.1169283,59.6266141 C51.1169283,59.6266141 51.4364105,59.2106367 52.2634984,59.6630296 C52.2634984,59.6630296 67.7096274,68.9248283 87.9956576,68.9248283 C87.9956576,68.9248283 102.095813,69.4500522 116.559844,63.4975144 C116.559844,63.4975144 117.712236,62.9229194 118.305352,63.6977998 Z"/>
  </g>
</svg>
