<svg xmlns="http://www.w3.org/2000/svg" width="200" height="100" viewBox="0 0 200 100">
  <g fill="none" fill-rule="evenodd">
    <path fill="#9CA3AF" d="M135.407516 47.3606442C137.010032 44.9096643 139.280759 43.8897877 142.095576 44.0104831 145.001358 44.1337649 147.00599 45.5760757 148.200438 48.4253506 148.401072 48.0779201 148.531993 47.8606683 148.654414 47.6391059 149.858213 45.4510697 151.700469 44.2880827 154.153976 44.0527266 155.488697 43.9251342 156.795364 44.0053105 158.022967 44.5587854 160.518981 45.6847016 161.833299 47.7598014 161.920864 50.4314816 162.063688 54.7584138 161.965921 59.0948292 161.983774 63.4269341 161.985475 63.8985085 161.772939 63.9916164 161.366572 63.988168 159.712198 63.9743742 158.056123 63.9605805 156.401749 63.9942028 155.842356 64.0054102 155.729287 63.7838478 155.731837 63.2734784 155.74714 59.9164205 155.74884 56.5593625 155.730987 53.2031666 155.720786 51.3142826 154.549291 49.841798 153.000334 49.7029983 150.530675 49.482298 148.696921 51.1366879 148.673967 53.6695683 148.645062 56.8223061 148.644212 59.975044 148.679918 63.1277818 148.687569 63.8286776 148.482685 64.019204 147.808523 63.9985133 146.22131 63.9502351 144.632396 63.9631668 143.044333 63.9933406 142.494292 64.0045481 142.310661 63.8381608 142.314062 63.2639952 142.335315 59.8388305 142.331065 56.4136658 142.316612 52.9893632 142.310661 51.4987743 141.470722 50.2849228 140.19211 49.8392117 138.74432 49.3348771 137.096747 49.8469707 136.169243 51.0978929 135.558841 51.9203463 135.24599 52.8505634 135.245139 53.8799233 135.240889 56.9878313 135.223886 60.0957394 135.257041 63.2027854 135.263843 63.8536788 135.052157 64.0088586 134.450258 63.9950649 132.863044 63.9588562 131.273281 63.9623047 129.686067 63.9950649 129.141977 64.0062723 128.999153 63.8045385 129.000854 63.2846859 129.012756 57.1602534 129.013606 51.035821 129 44.9122506 128.999153 44.3863633 129.147928 44.1975611 129.688618 44.2079064 131.297935 44.2406666 132.909802 44.2398045 134.519119 44.2087685 135.064059 44.1992853 135.284246 44.3510168 135.251941 44.9329413 135.208583 45.7097028 135.240889 46.4907748 135.240889 47.2701227 135.296148 47.3002965 135.352257 47.3304704 135.407516 47.3606442M117.375964 60.7158533C117.10279 61.0425376 116.833966 61.37438 116.554702 61.6959061 113.889081 64.7632996 108.332515 64.7710368 105.698214 61.7010643 104.53853 60.3504827 104.047861 58.7282374 104.027851 57.0019689 103.980872 52.8874664 104.018282 48.7712445 104 44.656742 103.998272 44.1409247 104.184448 43.9973556 104.682077 44.0050928 106.32895 44.0283046 107.977563 44.0386209 109.623567 44.001654 110.222983 43.9878989 110.415249 44.1615574 110.410029 44.7633442 110.38393 47.9063909 110.38306 51.0494375 110.410899 54.1916244 110.416989 54.8621869 110.497897 55.5542417 110.685813 56.1947149 111.019015 57.3312323 111.842887 58.0473586 113.025191 58.2270349 114.445869 58.4428185 115.714301 58.1066776 116.62952 56.9159993 117.335944 55.9969849 117.591719 54.9275237 117.596069 53.7996033 117.607378 50.7923885 117.612598 47.7851738 117.587369 44.777959 117.582149 44.1942258 117.737006 43.9853198 118.355562 44.0007943 120.002435 44.0403403 121.651048 44.0351822 123.297921 44.0033734 123.853839 43.9921974 123.999126 44.1873483 123.998256 44.7083237 123.985206 50.8130212 123.986946 56.9177187 124 63.0232759 124.000866 63.5356544 123.866889 63.7445604 123.303141 63.7333844 121.611029 63.6998563 119.917177 63.7075935 118.224195 63.7299456 117.740485 63.7368232 117.576059 63.570902 117.592589 63.1015082 117.619558 62.3234838 117.599549 61.5428804 117.599549 60.7639963 117.5256 60.747662 117.450782 60.7321875 117.375964 60.7158533M51.6967787 56.4596573C51.6967787 56.2654934 51.7605254 56.0151241 51.6795498 55.8260698 51.59599 55.6310542 51.3728766 55.3568403 51.2092026 55.3559887 49.7413057 55.3474727 48.2691016 55.3304408 46.8072348 55.4377419 45.6313667 55.5237531 44.9516891 56.3038152 44.9301531 57.3487237 44.9043098 58.6107893 45.524548 59.4734562 46.7262593 59.6412207 47.449009 59.7425606 48.2217223 59.7561862 48.9324118 59.6139696 50.359821 59.3286849 51.9069705 58.1654045 51.6967787 56.4596573M51.7010859 61.5360222C51.1540703 62.0061033 50.8034635 62.3561093 50.4063388 62.6413941 48.7437561 63.8361835 46.8313552 64.1521257 44.8569305 63.9375235 43.8240618 63.8259644 42.754151 63.5415312 41.8263782 63.0842241 40.1078017 62.2377375 39.1851975 60.741483 39.0413367 58.8432751 38.9818972 58.0521422 38.9663913 57.2226875 39.1343724 56.4545477 39.652099 54.0905167 41.3525852 52.831006 43.6190386 52.4333105 45.2747298 52.1437678 46.9915834 52.189754 48.6825937 52.1131104 49.4742588 52.0764917 50.2693696 52.0867109 51.0618961 52.1088524 51.5796226 52.1233295 51.7234834 51.8951017 51.7002245 51.4165047 51.6356163 50.0590604 50.4494109 48.9783848 48.8807253 48.8106203 46.671127 48.5738766 44.6165883 49.1231561 42.6283805 49.9815651 42.110654 50.2055349 41.872896 50.1552907 41.6713186 49.6196367 41.2862541 48.5934633 40.851226 47.5851734 40.4187822 46.5760319 40.2645841 46.2166583 40.3266079 46.0097205 40.710811 45.8538784 43.087529 44.8898715 45.5150721 44.1702727 48.108012 44.0357205 50.0255815 43.9360837 51.9018018 44.0110242 53.713414 44.7016687 56.3692392 45.7150682 57.9749668 47.9939396 57.9835812 50.8135746 57.9965028 54.868024 57.9766896 58.9224735 58 62.976923 58.0033943 63.5636727 57.8345517 63.7561335 57.2324039 63.7416563 55.6464895 63.7041861 54.0588522 63.6982249 52.4746607 63.7433595 51.8147962 63.7620947 51.6321705 63.5219445 51.6933329 62.924124 51.7338207 62.5323898 51.7010859 62.1329911 51.7010859 61.5360222M72.9824427 58.4280103C73.3422175 59.7974726 73.6936642 61.0708619 73.9943093 62.3577352 74.0334515 62.5254416 73.8635578 62.8608546 73.7028251 62.9426009 72.002223 63.8097866 70.1742006 64.1013768 68.2928782 63.9699084 66.6738917 63.8569804 65.2256316 63.2872841 64.107165 62.0290642 63.2526999 61.0683337 62.7854924 59.9272555 62.7655049 58.6521807 62.720533 55.8820744 62.7405205 53.1111254 62.7313596 50.341019 62.7280283 49.4359098 62.7172018 49.4283251 61.8019414 49.4198976 60.0088971 49.4038854 60.0088971 49.4038854 60.0088971 47.6079936 60.0088971 47.0543094 60.0322158 46.4989397 60.0022346 45.9460983 59.9764174 45.4699468 60.1737939 45.3174098 60.6210139 45.3426921 61.1007137 45.3705028 61.5862431 45.3174098 62.06511 45.3570188 62.6064378 45.4016844 62.7446846 45.1530743 62.7371893 44.6558541 62.7188674 43.3487549 62.7521799 42.0408131 62.7238643 40.7337139 62.7122049 40.2027839 62.8512845 39.9878836 63.4184295 40.0005248 65.0165958 40.0350774 66.6164276 40.0283355 68.2145939 40.0030531 68.7126155 39.9954684 68.856692 40.1766588 68.847531 40.6612377 68.8233795 42.0121597 68.8583576 43.3656099 68.830042 44.7165318 68.8200482 45.2162802 68.9882763 45.3679745 69.47214 45.3570188 70.6980393 45.3292082 71.9256042 45.3637608 73.1515035 45.3410066 73.6045533 45.3325792 73.782775 45.4893299 73.7736141 45.9511548 73.7536266 46.9034578 73.7527938 47.8574464 73.7736141 48.8097494 73.7836079 49.2800017 73.5812345 49.4274823 73.1423426 49.4215831 71.9822355 49.4047282 70.8204627 49.4443372 69.6603556 49.4064137 69.0482387 49.3861877 68.8142186 49.5623217 68.8250451 50.2230346 68.8625216 52.3720371 68.8358717 54.522725 68.8408685 56.6725702 68.8458654 58.6563945 69.746968 59.3550309 71.6491107 58.850226 72.0671823 58.7389836 72.476093 58.5898175 72.9824427 58.4280103M84.2032465 47.3217019C85.5970415 45.1636584 87.4616802 43.9636895 90 44.0008376L90 49.6283377C89.1862062 49.729415 88.3797439 49.7838413 87.5903883 49.9358892 85.7917329 50.2823165 83.9148751 51.7708309 83.9792292 54.6588771 84.0435832 57.5210061 83.9824876 60.3857268 84.0020382 63.2487196 84.0061112 63.7947098 83.8741447 64.0124148 83.3202109 63.9994561 81.7561628 63.9640359 80.1913 63.9709472 78.6272518 63.9968644 78.1466329 64.0046396 77.9991887 63.830994 78 63.3290631 78.0122225 57.1711231 78.0114079 51.0123192 78.000818 44.8535153 78 44.3662709 78.1230092 44.1649802 78.6174765 44.1727554 80.2027045 44.2004004 81.7887471 44.1995365 83.3739751 44.1736193 83.8562233 44.1658441 84.0183304 44.3394897 83.9995944 44.8422845 83.9702685 45.6448555 83.9922629 46.4508821 83.9922629 47.255181 84.0623192 47.2776426 84.1331902 47.2992403 84.2032465 47.3217019M99.9884759 54.5672795C99.9892908 57.4626688 99.9762529 60.3572304 99.9998841 63.251792 100.004773 63.8146464 99.8564673 64.0141286 99.2787257 63.9992295 97.7581817 63.9611541 96.2351931 63.9686036 94.714649 63.9959186 94.2037267 64.0050236 93.9983799 63.873415 94 63.3105606 94.016307 57.4336984 94.0146772 51.5568362 94.0016394 45.6791462 94.0008245 45.1775436 94.1369075 44.9904773 94.6576082 45.00041 96.2213403 45.0318637 97.7867021 45.0318637 99.3496193 45.00041 99.8792836 44.9896496 99.9998841 45.1899595 99.9966246 45.6865958 99.9786975 48.6465478 99.987661 51.6073275 99.9884759 54.5672795M93.0029852 39.4519916C93.0110628 37.4055573 94.4479631 35.994711 96.5211923 36 98.5271088 36.0053188 100.013372 37.510752 99.9999093 39.5235947 99.9882418 41.4745583 98.4714637 43.0339147 96.5202948 42.9994392 94.1876876 42.9578917 92.9302876 41.2942245 93.0029852 39.4519916"/>
  </g>
</svg>
