<svg xmlns="http://www.w3.org/2000/svg" width="200" height="100" viewBox="0 0 200 100">
  <g fill="none" fill-rule="evenodd">
    <path fill="#9CA3AF" d="M73.4036556,53.7098237 L50.7730157,53.519569 L46.2980158,34.8343487 C44.7564261,31.2118813 39.892801,28.3898397 35.1569961,28.3898397 C28.1466794,28.3898397 22.4429697,34.0004482 22.4429697,40.8966533 C22.4429697,43.2021681 23.2064483,44.9521728 24.2363266,47.4576881 L20.1120792,47.4576881 C19.4303712,44.7742062 19,43.6390337 19,40.8966533 C19,32.1313753 26.2478816,25 35.1569961,25 C41.4524663,25 47.5017641,28.6542472 49.5417236,33.6885829 L49.6178993,33.9271429 L53.5041514,50.1526107 L71.0740563,50.3000687 C71.9860129,47.8873503 73.4419587,43.4886095 73.4419587,40.8966533 C73.4419587,34.0004482 67.7386793,28.3898397 60.7283626,28.3898397 C57.517363,28.3898397 55.5423895,28.8466206 52.8560124,31.0733216 L50.7041563,28.1072118 C53.9921924,25.381357 56.7306444,25 60.7283626,25 C69.6370468,25 76.8849284,32.1313753 76.8849284,40.8966533 C76.8849284,45.2318346 73.9683027,52.3428709 73.8439254,52.6432954 L73.4036556,53.7098237 Z"/>
    <path fill="#9CA3AF" d="M47.96542,75 L47.0723998,74.4762698 C46.6872175,74.2504217 37.5663604,68.8775257 30.8994799,62.7461532 C27.5253696,59.6440261 26.6680701,58.6376674 22.558025,52.957991 L20.619633,50.2795939 L23.9601744,50.2795939 C26.8509779,50.2795939 40.2183078,50.0274746 40.353014,50.0253559 L41.5533193,50.0024745 L43.2911583,55.1173189 L45.5506071,42.0876225 L46.9493136,49.1850994 L45.0126431,59.5664835 L42.5380086,59.5664835 L39.2185555,53.4363821 C36.7650092,53.482145 31.1357537,53.5838401 27.2938298,53.6363827 C29.6957316,56.876222 30.6666491,57.8940213 33.2497371,60.2686041 C38.4654058,65.065651 45.4864818,69.5199004 47.94218,71.0254129 C50.3858277,69.4949003 57.3746259,64.9830236 62.6763689,60.2516549 C64.8772873,58.2880902 65.4965915,58.1249542 66.9998781,56.2122371 L71.37288,56.2825763 C69.7443554,58.3546158 67.3411625,60.6643679 64.9887534,62.7635261 C58.2469884,68.7804916 49.2324329,74.2360149 48.8524151,74.4652528 L47.96542,75 Z"/>
    <path fill="#9CA3AF" stroke="#9CA3AF" stroke-width=".5" d="M89.9531565,55.7585313 C92.3257719,55.7585313 94.1201869,54.2423861 94.3993182,52.0370841 L93.4223589,52.0370841 C93.1631656,53.8879626 91.6877577,54.8724724 89.9531565,54.8724724 C87.7599827,54.8724724 86.0652574,53.2775665 86.0652574,50.5603193 L86.0652574,50.4027977 C86.0652574,47.6855505 87.7799206,46.0315739 89.9531565,46.0315739 C91.588068,46.0315739 93.003662,46.838872 93.2628553,48.5716094 L94.2996284,48.5716094 C94.0204972,46.2481661 92.0665787,45.1455151 89.9531565,45.1455151 C87.2017202,45.1455151 84.9686704,47.2523662 84.9686704,50.4027977 L84.9686704,50.5603193 C84.9686704,53.6910606 87.1419064,55.7585313 89.9531565,55.7585313 L89.9531565,55.7585313 Z M98.9385235,55.7585313 C100.693063,55.7585313 101.809588,55.029994 102.46754,54.025794 L102.46754,55.6010097 L103.524251,55.6010097 L103.524251,48.7882015 C103.524251,46.1694053 102.048843,45.1455151 99.8756069,45.1455151 C97.9017504,45.1455151 96.1073354,46.0512641 95.8680801,48.2171858 L96.9048532,48.2171858 C97.1441085,46.7010406 98.2606334,46.0315739 99.835731,46.0315739 C101.670022,46.0315739 102.46754,46.8585622 102.46754,48.7882015 L102.46754,49.7136408 L100.294304,49.7136408 C97.7223089,49.7136408 95.4095073,50.4421781 95.4095073,52.8246919 C95.4095073,54.7740215 96.8849152,55.7585313 98.9385235,55.7585313 L98.9385235,55.7585313 Z M99.0182753,54.9118528 C97.3036121,54.9118528 96.4662184,54.1439352 96.4662184,52.8246919 C96.4662184,50.9738134 98.1609437,50.5209389 100.33418,50.5209389 L102.46754,50.5209389 L102.46754,52.2733664 C102.46754,53.8092018 100.932318,54.9118528 99.0182753,54.9118528 L99.0182753,54.9118528 Z M106.049724,55.6010097 L107.106435,55.6010097 L107.106435,49.8908526 C107.106435,47.1539152 108.621719,46.2284759 110.635451,46.1497151 L110.635451,45.1652053 C108.721408,45.2242759 107.684635,46.2087857 107.106435,47.4689583 L107.106435,45.3030367 L106.049724,45.3030367 L106.049724,55.6010097 Z M115.832608,55.7585313 C117.786527,55.7585313 119.241997,54.4589783 119.800259,53.2184959 L119.800259,55.6010097 L120.85697,55.6010097 L120.85697,40.3804874 L119.800259,40.3804874 L119.800259,47.5870995 C119.202121,46.3072367 118.04572,45.1455151 115.992112,45.1455151 C113.240676,45.1455151 111.147191,47.2720564 111.147191,50.4421781 L111.147191,50.5996997 C111.147191,53.8682724 113.180862,55.7585313 115.832608,55.7585313 L115.832608,55.7585313 Z M115.932298,54.8724724 C113.858752,54.8724724 112.243778,53.3760175 112.243778,50.5603193 L112.243778,50.4027977 C112.243778,47.6264799 113.858752,46.0315739 116.091802,46.0315739 C118.265038,46.0315739 119.820197,47.5280289 119.820197,50.3634173 L119.820197,50.5209389 C119.820197,53.3563273 118.04572,54.8724724 115.932298,54.8724724 L115.932298,54.8724724 Z M123.502071,55.6010097 L124.558782,55.6010097 L124.558782,45.3030367 L123.502071,45.3030367 L123.502071,55.6010097 Z M124.020458,43.0977346 C124.439154,43.0977346 124.758162,42.7630012 124.758162,42.3495071 C124.758162,41.9557031 124.439154,41.6209698 124.020458,41.6209698 C123.601761,41.6209698 123.262816,41.9557031 123.262816,42.3495071 C123.262816,42.7630012 123.601761,43.0977346 124.020458,43.0977346 L124.020458,43.0977346 Z M132.135201,54.8724724 C129.862275,54.8724724 128.187488,53.1791155 128.187488,50.5406291 L128.187488,50.3831075 C128.187488,47.7052407 129.902151,46.0315739 132.135201,46.0315739 C134.348313,46.0315739 136.062976,47.6658603 136.062976,50.3831075 L136.062976,50.5406291 C136.062976,53.1988057 134.368251,54.8724724 132.135201,54.8724724 L132.135201,54.8724724 Z M132.115263,55.7585313 C134.926513,55.7585313 137.159563,53.63199 137.159563,50.5209389 L137.159563,50.3634173 C137.159563,47.232676 134.946451,45.1455151 132.135201,45.1455151 C129.343889,45.1455151 127.090901,47.2917466 127.090901,50.3831075 L127.090901,50.5406291 C127.090901,53.5729194 129.284075,55.7585313 132.115263,55.7585313 L132.115263,55.7585313 Z M143.759023,59.3027668 C146.550335,59.3027668 148.564067,57.9441432 148.584005,54.9118528 L148.584005,45.3030367 L147.527294,45.3030367 L147.527294,47.5280289 C146.929156,46.2678563 145.772755,45.1455151 143.719147,45.1455151 C140.96771,45.1455151 138.874226,47.2720564 138.874226,50.2058957 L138.874226,50.3437271 C138.874226,53.3366371 140.927834,55.2662764 143.579581,55.2662764 C145.513562,55.2662764 146.969032,54.0061038 147.527294,52.7656214 L147.527294,54.8724724 C147.527294,57.4125079 145.972134,58.4167079 143.739085,58.4167079 C141.565849,58.4167079 140.449324,57.5109589 140.170193,56.1917157 L139.093544,56.1917157 C139.352737,57.8456922 140.748393,59.3027668 143.759023,59.3027668 L143.759023,59.3027668 Z M143.679271,54.3802175 C141.605725,54.3802175 139.970813,52.8837625 139.970813,50.3240369 L139.970813,50.1665153 C139.970813,47.6067897 141.585787,46.0315739 143.818836,46.0315739 C145.992072,46.0315739 147.547232,47.5280289 147.547232,50.1271349 L147.547232,50.2846565 C147.547232,52.8640723 145.792693,54.3802175 143.679271,54.3802175 L143.679271,54.3802175 Z M151.18923,55.6010097 L152.245941,55.6010097 L152.245941,49.8908526 C152.245941,47.1539152 153.761225,46.2284759 155.774957,46.1497151 L155.774957,45.1652053 C153.860914,45.2242759 152.824141,46.2087857 152.245941,47.4689583 L152.245941,45.3030367 L151.18923,45.3030367 L151.18923,55.6010097 Z M160.035031,55.7585313 C161.78957,55.7585313 162.906095,55.029994 163.564047,54.025794 L163.564047,55.6010097 L164.620758,55.6010097 L164.620758,48.7882015 C164.620758,46.1694053 163.145351,45.1455151 160.972115,45.1455151 C158.998258,45.1455151 157.203843,46.0512641 156.964588,48.2171858 L158.001361,48.2171858 C158.240616,46.7010406 159.357141,46.0315739 160.932239,46.0315739 C162.76653,46.0315739 163.564047,46.8585622 163.564047,48.7882015 L163.564047,49.7136408 L161.390811,49.7136408 C158.818817,49.7136408 156.506015,50.4421781 156.506015,52.8246919 C156.506015,54.7740215 157.981423,55.7585313 160.035031,55.7585313 L160.035031,55.7585313 Z M160.114783,54.9118528 C158.40012,54.9118528 157.562726,54.1439352 157.562726,52.8246919 C157.562726,50.9738134 159.257451,50.5209389 161.430687,50.5209389 L163.564047,50.5209389 L163.564047,52.2733664 C163.564047,53.8092018 162.028826,54.9118528 160.114783,54.9118528 L160.114783,54.9118528 Z M167.146231,55.6010097 L168.202942,55.6010097 L168.202942,49.3198369 C168.202942,47.1736054 169.837854,46.0512641 171.432889,46.0512641 C173.107677,46.0512641 174.04476,46.9176328 174.04476,49.1032447 L174.04476,55.6010097 L175.101471,55.6010097 L175.101471,49.3198369 C175.101471,47.1736054 176.736383,46.0512641 178.331418,46.0512641 C180.006206,46.0512641 180.943289,46.9176328 180.943289,49.1032447 L180.943289,55.6010097 L182,55.6010097 L182,49.1623153 C182,46.2284759 180.524592,45.1455151 178.51086,45.1455151 C176.935762,45.1455151 175.460354,45.9921936 174.802402,47.4492681 C174.363767,45.7952916 173.167491,45.1455151 171.612331,45.1455151 C169.917606,45.1455151 168.681453,46.1300249 168.202942,47.2523662 L168.202942,45.3030367 L167.146231,45.3030367 L167.146231,55.6010097 Z"/>
  </g>
</svg>
