<svg xmlns="http://www.w3.org/2000/svg" width="200" height="100" viewBox="0 0 200 100">
  <g fill="none" fill-rule="evenodd">
    <polygon fill="#9CA3AF" fill-rule="nonzero" points="45.556 40.857 34.927 40.857 34.927 31.136 67.858 31.136 67.858 40.857 57.233 40.857 57.233 69.061 45.556 69.061"/>
    <polygon fill="#9CA3AF" fill-rule="nonzero" points="69.672 31.136 101.64 31.136 101.64 40.857 81.358 40.857 81.358 45.583 101.64 45.583 101.64 54.616 81.358 54.616 81.358 59.341 101.646 59.341 101.646 69.063 69.672 69.063"/>
    <path fill="#9CA3AF" fill-rule="nonzero" d="M115,59 L119.600671,59 C126.929283,59 128,53.2568351 128,49.7882433 C128,47.4648537 127.247088,41 118.744098,41 L115,41 L115,59 Z M104,31 L123.025691,31 C135.566542,31 140,40.366962 140,49.944341 C140,61.6041726 133.886184,69 120.761912,69 L104,69 L104,31 Z"/>
    <polygon fill="#9CA3AF" fill-rule="nonzero" points="156.679 54.446 153.115 48.536 149.638 54.446 141.078 54.446 149.204 42.495 141.379 31.063 149.943 31.063 153.115 36.714 156.377 31.063 164.939 31.063 157.116 42.495 165.243 54.446"/>
  </g>
</svg>
