<svg xmlns="http://www.w3.org/2000/svg" version="1.1" xmlns:xlink="http://www.w3.org/1999/xlink" width="110" height="110"><svg xmlns="http://www.w3.org/2000/svg" version="1.1" xmlns:xlink="http://www.w3.org/1999/xlink" width="110" height="110"><svg version="1.1" id="Layer_1" xmlns="http://www.w3.org/2000/svg" xmlns:xlink="http://www.w3.org/1999/xlink" x="0px" y="0px" viewBox="0 0 110 110" style="enable-background:new 0 0 110 110;" xml:space="preserve">
<style type="text/css">
	.st0{fill:#ABC3FF;}
	.st1{fill:#FFAEF0;}
	.st2{enable-background:new    ;}
	.st3{fill:#F1F332;}
	.st4{fill:#FF91E7;}
</style>
<g id="Digital_Camera">
	<g>
		<g>
			<g>
				<path class="st0" d="M76.3323975,77.5139236l-44.8900146,25.9199829c-0.1768875,0.0885162-0.315836,0.0971603-0.5100098,0
					L13.6724243,93.4039383c-0.3259993-0.1956253-0.3163204-0.6865005,0.0099487-0.8699951l5.6300049-3.25
					c0.1500244-0.0900269,0.3400269-0.0900269,0.5,0.0100098l9.0200195,5.289978l7.7799683,0.6500244l5.8700562-3.4100342
					l0.0199585-5.0899658c0-0.1700439,0.0900269-0.3400269,0.2399902-0.4300537l23.4200439-13.6099854
					c0.1599731-0.0899658,0.3499756-0.0899658,0.5100098,0l5.039978,2.9199829
					c0.1203995,0.0301514,1.5970306,1.1762848,4.3300171,0.9700317
					C76.5487518,76.539856,76.7909393,77.2388306,76.3323975,77.5139236z"></path>
			</g>
		</g>
		<g>
			<g>
				<path class="st0" d="M93.9824829,67.3239212l-6.1900635,3.5800171
					c-0.2200317,0.1199951-0.4900513,0.0700073-0.6500244-0.1199951c-0.1500244-0.2000122-0.1400146-0.4700317,0.0300293-0.6500244
					c1.3399658-1.4599609,2.5899658-3.1099854,3.7099609-4.9099731c0.1400146-0.2300415,0.4399414-0.2999878,0.6799316-0.1700439
					l2.420166,1.4000244C94.3097916,66.6504974,94.3190079,67.1219559,93.9824829,67.3239212z"></path>
			</g>
		</g>
		<g>
			<g>
				<g class="st2">
					<g>
						<g>
							<g>
								<path class="st0" d="M38.2579155,43.7499237c0,0.5306969-0.3140564,0.9902458-0.710022,1.3499756
									c-2.305481,1.8447609-6.9014606,1.0592957-7.5-0.9500122c-0.105772-0.3704414-0.0407085-0.3690109-0.0499878-3.2799683
									l0.0700073-0.0200195c0.1300049,0.4700317,0.5200195,0.9199829,1.1500244,1.289978
									c1.6099854,0.9300537,4.2299805,0.9400024,5.8299561,0.0100098
									c0.0100098-0.0100098,0.0100098-0.0100098,0.0200195-0.0100098
									c0.6300125-0.3499374,1.2000122-0.9525795,1.2000122-1.6799927
									C38.2679253,40.4598846,38.2572632,43.9646301,38.2579155,43.7499237z M51.8179131,31.9698944l-7.5299683,4.3500366
									c-0.6000366,0.3499756-1.3500366,0.3499756-1.9500122,0l-3.2000122-1.8600464
									c-0.5599976-0.3299561-0.5599976-1.1399536,0-1.4699707l7.539978-4.3400269
									c0.6000366-0.3499756,1.3500366-0.3499756,1.9500122,0l3.2000122,1.8599854
									C52.3879204,30.8298798,52.3879204,31.6398773,51.8179131,31.9698944z"></path>
							</g>
							<g>
								<path class="st0" d="M31.6121216,46.1844597c-1.0766678-0.4109612-2.1240234-1.2803841-2.1240234-2.4545898
									l0.0097656-2.8618164c0.0009766-0.2226562,0.1484375-0.4179688,0.3632812-0.4790039
									c0.1289062-0.0361328,0.3007812-0.0297852,0.4169922,0.0351562s0.2363281,0.1640625,0.2714844,0.2924805
									c0.0966797,0.347168,0.4238281,0.699707,0.9208984,0.9921875c1.4511719,0.8374023,3.890625,0.8417969,5.3261719,0.0087891
									v0.0004883c0.1124344-0.068264,0.1789551-0.0915565,0.4472656-0.3081055
									c0.3349609-0.2851562,0.5195312-0.6118164,0.5244141-0.9379883v-0.0151367
									c0.0019531-0.2753906,0.2255859-0.4970703,0.5-0.4970703c0.0009766,0,0.0009766,0,0.0019531,0
									c0.2753906,0.0009766,0.4980469,0.2246094,0.4980469,0.5c0,0.1006927-0.010582,3.3907318-0.0107422,3.2900391
									c0,0.4838867-0.1816406,0.9423828-0.5390625,1.3637695c-0.2125397,0.3003273-0.5885391,0.5626678-0.9013672,0.753418
									C35.6906166,46.7882996,33.3199997,46.8662682,31.6121216,46.1844597z M30.492981,42.2503777
									c0.0079918,1.5159836-0.0349255,1.5091362,0.0351562,1.762207c0.1737118,0.5769196,0.8845615,1.0251694,1.4472656,1.2402344
									c2.1779099,0.8711624,4.8214684,0.1211014,5.4580078-0.7573242
									c0.2226562-0.2646484,0.3242188-0.5053711,0.3242188-0.7456055v-1.4716797
									C35.8689728,43.7305222,32.2765999,43.6578598,30.492981,42.2503777z M42.0857544,36.7518425l-3.1992188-1.8598633
									c-0.895359-0.5278435-0.8879852-1.8122673-0.0029297-2.3325195l7.5449219-4.3427734
									c0.7548828-0.440918,1.6962891-0.4404297,2.4511719,0.0014648l3.1992188,1.859375
									c0.8892937,0.508316,0.895237,1.8010826-0.0097656,2.3251953c0,0-0.0009766,0-0.0009766,0.0004883l-7.5302734,4.3496094
									C43.793026,37.1870079,42.8536644,37.1991272,42.0857544,36.7518425z M46.9295044,29.0819206l-7.5429688,4.3413086
									c-0.2235069,0.1326637-0.2286415,0.4680328,0.0048828,0.605957l3.1972656,1.8583984
									c0.4472656,0.2607422,1.0019531,0.2602539,1.4472656,0.0004883l7.53125-4.3505859
									c0.238903-0.1381607,0.2359009-0.4653702,0.0126686-0.59375L48.37677,29.0819206
									C47.9255257,28.8188591,47.3697128,28.8241673,46.9295044,29.0819206z M51.8181763,31.9701042h0.0097656H51.8181763z"></path>
								<path class="st0" d="M87.352417,14.3139153v0.0300293c-0.0200195,0.8300171-0.4500122,1.5599976-1.1500244,1.9699707
									l-43.8800049,25.5l1.2600098,4.1799927c0.0700073,0.2200317-0.0200195,0.460022-0.2200317,0.5800171
									c-6.2924843,3.6265297-6.370636,3.7796783-6.5499878,3.6900024
									c-8.6868763-0.7494392-8.1245785-0.6347618-8.2999878-0.7600098l-11.7700195-7.8800049
									c-0.1399536-0.0899658-0.2299805-0.25-0.2199707-0.4199829c0.0100098-0.8300171,0.4400024-1.5700073,1.1500244-1.9899902
									L54.432373,17.8439445c0.3772774-0.2096825,0.8532906,0.1169147,0.7400513,0.5700073l-0.7800293,2.8499756
									l6.960022,4.0499878l14.4099731-8.3200073l-1.6699829-4.1300049l-10.4800415,6.0500488
									c-0.1599731,0.0899658-0.3499756,0.0899658-0.5099487,0l-4.5100098-2.6199951
									c-0.3258934-0.1955624-0.3121948-0.6827812,0-0.8699951l14.4099731-8.3800049
									c1.2700195-0.7300415,2.8400269-0.7300415,4.1099854,0l9.0800171,5.2299809
									C86.9224243,12.7039299,87.352417,13.4639397,87.352417,14.3139153z"></path>
							</g>
						</g>
						<g>
							<g>
								<path d="M41.1043091,87.5496902l0.1103516-40.5996056c0-0.1777344,0.0957031-0.3422852,0.25-0.4311523l1.0576172-0.6118164
									l-1.265625-4.1914062c-0.0673828-0.2216797,0.0273438-0.4604492,0.2275391-0.5766602l44.2099609-25.6899414
									c0.4121094-0.237793,0.6523438-0.6445312,0.6601562-1.1157227c0.0048828-0.2753906,0.2177734-0.5224609,0.5048828-0.4921875
									c0.2744141,0.0024414,0.4960938,0.2265625,0.4951172,0.5014648l-0.0595703,20.5102539
									c-0.0009766,0.2753906-0.2246094,0.4985352-0.5,0.4985352h-0.0009766
									c-0.2763672-0.0009766-0.5-0.2250977-0.4990234-0.5014648l0.0537109-18.6323242
									c-0.1371231,0.0941029,2.9492874-1.7087173-44.0205078,25.5874023l1.265625,4.1918945
									c0.0673828,0.222168-0.0273438,0.4609375-0.2285156,0.5771484l-1.1513672,0.6665039l-0.1074219,39.4399376
									l21.0771484-12.2514648c0.2373047-0.1386719,0.5439453-0.059082,0.6835938,0.1806641
									c0.1386719,0.2387695,0.0576172,0.5449219-0.1816406,0.6835938L41.8552856,87.983284
									C41.5266685,88.176712,41.1021919,87.9379883,41.1043091,87.5496902z"></path>
							</g>
						</g>
					</g>
					<g>
						<g>
							<g>
								<path class="st1" d="M43.1078911,46.1398773c-0.0102768,3.6335373,0.0422935-14.9549923-0.1300049,45.9700317
									l-6.25,3.6400146V49.7598724l0.1300049,0.0100098C36.957901,49.7117958,43.5236168,45.8984222,43.1078911,46.1398773z"></path>
							</g>
							<g>
								<path d="M36.2283325,95.7498856V49.759655c0-0.2557373,0.1975021-0.4990883,0.5126953-0.5l6.1171875-3.5522461
									c0.3305206-0.1924553,0.75,0.0464745,0.75,0.434082l-0.1298828,45.970211
									c-0.0009766,0.1772461-0.0947266,0.3408203-0.2480469,0.4301758l-6.25,3.6401367
									C36.6464081,96.3760834,36.2283325,96.1345444,36.2283325,95.7498856z M37.2283325,50.1331902v44.7470665
									l5.2509766-3.0585938l0.1269531-44.8134727L37.2283325,50.1331902z"></path>
							</g>
						</g>
						<g>
							<g>
								<polygon class="st0" points="36.7224121,49.7639275 36.7224121,95.7539139 28.6624146,95.0639114 28.7924194,49.0939445 
																	"></polygon>
							</g>
							<g>
								<path d="M36.6834106,96.2479324l-8.0673828-0.6845703c-0.2753906-0.0229492-0.4794922-0.2651367-0.4560547-0.5405273
									c0.0224609-0.2753906,0.2919922-0.4824219,0.5400391-0.4555664l7.5253906,0.6381836V50.2235222l-7.4785156-0.6362305
									c-0.2753906-0.0234375-0.4794922-0.2651367-0.4560547-0.5405273
									c0.0244141-0.2753906,0.2880859-0.4775391,0.5400391-0.4555664l7.9365234,0.6748047
									c0.2587891,0.0219727,0.4580078,0.2382812,0.4580078,0.4980469v45.985836
									C37.2254028,96.0528641,36.9574013,96.2772903,36.6834106,96.2479324z"></path>
							</g>
						</g>
					</g>
					<g>
						<g>
							<g>
								<path d="M28.4050903,95.4910965l-9.4502201-5.5400391c-1.5097408-0.8876953-2.4472408-2.527832-2.4472408-4.28125
									V41.2000847c0-0.4286232,0.5118465-0.6639595,0.8359375-0.3701172l11.7226562,7.8442383
									c0.1386471,0.0927734,0.2216797,0.2485352,0.2216797,0.4155273L29.2283325,73.721077
									c-0.0009766,0.2758789-0.2246094,0.4990234-0.5,0.4990234H28.727356
									c-0.2763672-0.0004883-0.5-0.2250977-0.4990234-0.5009766l0.0585938-24.3627892l-10.7792969-7.2172852v43.5307579
									c0,1.4003906,0.7490234,2.7104492,1.9541016,3.4189453l8.7001953,5.1005859l0.0361328-8.9814453
									c0.0009766-0.2768555,0.2724609-0.4912109,0.5019531-0.4980469
									c0.2763672,0.0009766,0.4990234,0.2260742,0.4980469,0.5019531L29.15802,95.0618973
									C29.1559029,95.4493561,28.7357578,95.6853638,28.4050903,95.4910965z"></path>
							</g>
						</g>
					</g>
				</g>
			</g>
			<g>
				<g class="st2">
					<g>
						<g>
							<g>
								<path class="st1" d="M74.5924072,12.573925c-11.6570587,6.7015228-10.9839859,6.4100342-11.2300415,6.4100342
									c-0.2419891,0,0.2972298,0.2234802-7.7999878-4.4500122c-0.3371925-0.202425-0.3265533-0.6740894,0-0.8699951
									l10.9899902-6.3400273c0.1500244-0.0899658,0.3500366-0.0899658,0.5,0l7.5400391,4.3900151
									C74.9239426,11.9003878,74.9275818,12.3728485,74.5924072,12.573925z"></path>
							</g>
						</g>
					</g>
					<g>
						<g>
							<g>
								<path d="M61.09552,26.322155l-7.5400391-4.3901367c-0.1953125-0.1142578-0.2900391-0.3457031-0.2304688-0.5639648
									l2.0107422-7.3984375c0.0841904-0.3162346,0.4473724-0.4666929,0.7333984-0.3017578l7.5400391,4.3798828
									c0.1962891,0.1132812,0.2910156,0.3447266,0.2314453,0.5629883l-2.0107689,7.4101562
									C61.7435036,26.3366184,61.383503,26.4877453,61.09552,26.322155z M54.3914185,21.2611198l6.6445312,3.8686523
									l1.7392578-6.4101562l-6.6445312-3.8598633L54.3914185,21.2611198z"></path>
							</g>
						</g>
					</g>
					<g>
						<g>
							<g>
								<path d="M42.0857544,36.7518425l-3.1992188-1.8598633c-0.895359-0.5278435-0.8879852-1.8122673-0.0029297-2.3325195
									l7.5449219-4.3427734c0.7548828-0.440918,1.6962891-0.4404297,2.4511719,0.0014648l3.1992188,1.859375
									c0.8876534,0.5073776,0.8951836,1.8011131-0.0097656,2.3251953c0,0-0.0009766,0-0.0009766,0.0004883l-7.5302734,4.3496094
									C43.793026,37.1870079,42.8536644,37.1991272,42.0857544,36.7518425z M46.9295044,29.0819206l-7.5429688,4.3413086
									c-0.2235069,0.1326637-0.2286415,0.4680328,0.0048828,0.605957l3.1972656,1.8583984
									c0.4472656,0.2607422,1.0019531,0.2602539,1.4472656,0.0004883l7.5322266-4.3505859
									c0.2378769-0.139122,0.2346687-0.465517,0.011692-0.59375L48.37677,29.0819206
									C47.9263573,28.8193436,47.3706703,28.8236065,46.9295044,29.0819206z M51.8181763,31.9701042h0.0097656H51.8181763z"></path>
							</g>
						</g>
					</g>
					<g>
						<g>
							<g>
								<path d="M60.8650513,25.7591667l2.0107422-7.4101562c0.0341797-0.1274414,0.1181641-0.2363281,0.2324219-0.3022461
									l10.9794922-6.3398438c0.2637634-0.1513052,0.5990524-0.0362968,0.7138672,0.2456055l2.0498047,5.0698242
									c0.0927734,0.2314453,0.0019531,0.4960938-0.2138672,0.6206055l-15.0400391,8.6801758
									C61.212059,26.5447445,60.7486954,26.1901188,60.8650513,25.7591667z M63.7869263,18.809948l-1.6396484,6.0410156
									L75.7605591,16.99403l-1.6708984-4.1333008L63.7869263,18.809948z"></path>
							</g>
						</g>
					</g>
				</g>
			</g>
			<g>
				<g>
					<g>
						<g>
							<path class="st3" d="M37.0519218,38.7535706c1.4343185,0.8312836,1.6023598,2.1144257,0.5026474,3.0468636
								c-2.0841675,1.7671318-6.8550148,1.1662331-7.492794-0.9477119
								c-0.2233105-0.7403564,0.1556396-1.5284424,1.1376514-2.0991249
								C32.8109932,37.8170586,35.4298134,37.8170433,37.0519218,38.7535706z"></path>
						</g>
						<g>
							<path d="M30.9724731,42.5745964c-1.9303207-1.1149483-1.9961205-3.1072083-0.0244141-4.2529297
								c1.7744141-1.0317383,4.5654297-1.0327148,6.3535156-0.0009766c0,0,0,0.0004883,0.0009766,0.0004883
								c1.9481277,1.1287804,1.9612427,3.1173134,0.0166016,4.2524414
								C35.5360832,43.6093292,32.7493324,43.6000824,30.9724731,42.5745964z M31.4500122,39.1859245
								c-0.7402344,0.4301758-1.0712891,0.9853516-0.9101562,1.5229492
								c0.4459324,1.4759178,4.0893784,2.2699471,6.2763672,1.0004883c1.2859421-0.7514725,1.2605286-1.7835808-0.0146484-2.5224609
								l0,0C35.3478622,38.3468704,32.8967018,38.3462601,31.4500122,39.1859245z"></path>
						</g>
					</g>
				</g>
				<g>
					<g>
						<path d="M31.6121216,46.1844597c-1.0766678-0.4109612-2.1240234-1.2803841-2.1240234-2.4545898l0.0097656-2.8613281
							c0.0009766-0.2231445,0.1484375-0.418457,0.3632812-0.4794922c0.1289062-0.0361328,0.3007812-0.0297852,0.4169922,0.0351562
							s0.2363281,0.1640625,0.2714844,0.2924805c0.0966797,0.3476562,0.4238281,0.699707,0.9208984,0.9921875
							c1.4511719,0.8374023,3.890625,0.8417969,5.3261719,0.0087891v0.0004883
							c0.1124344-0.068264,0.1789551-0.0915565,0.4472656-0.3081055c0.3349609-0.2851562,0.5195312-0.6118164,0.5244141-0.9379883
							v-0.0151367c0.0019531-0.2753906,0.2255859-0.4970703,0.5-0.4970703c0.0009766,0,0.0009766,0,0.0019531,0
							c0.2753906,0.0009766,0.4980469,0.2246094,0.4980469,0.5c0,0.1006927-0.010582,3.3907318-0.0107422,3.2900391
							c0,0.4838867-0.1816406,0.9423828-0.5390625,1.3637695c-0.2125397,0.3003273-0.5885391,0.5626678-0.9013672,0.753418
							C35.6906166,46.7882996,33.3199997,46.8662682,31.6121216,46.1844597z M30.492981,42.2503777
							c0.0079918,1.5159836-0.0349255,1.5091362,0.0351562,1.762207c0.1737118,0.5769196,0.8845615,1.0251694,1.4472656,1.2402344
							c2.1872025,0.8718796,4.8234482,0.1183701,5.4580078-0.7573242c0.2226562-0.2646484,0.3242188-0.5053711,0.3242188-0.7456055
							v-1.4716797C35.8689728,43.7305222,32.2765999,43.6578598,30.492981,42.2503777z"></path>
					</g>
				</g>
			</g>
			<g>
				<g class="st2">
					<g>
						<g>
							<g>
								<path d="M71.2078247,76.4788895c-13.5719528-7.8954926-12.8294601-7.3940353-12.9472656-7.5678711
									c-2.4199219-1.7661133-3.7539062-4.989254-3.7744141-9.1796837
									c-0.0224609-9.2241211,6.4873047-20.4985352,14.5117188-25.1333008
									c3.3523788-1.9328766,7.3532791-2.9127617,10.6708984-0.9941406
									c14.4944611,8.4330788-3.9347153-2.280529,12.4707031,7.2524414l0,0
									c0.2392578,0.1386719,0.3203125,0.4443359,0.1816406,0.6831055
									c-0.1396484,0.2402344-0.4472656,0.3178711-0.6835938,0.1811523l0,0
									c-0.2501221-0.1367836-0.4872437-0.2655792-0.6240234-0.3105469
									c-0.4276962-0.1993294-0.3170547-0.1184273-0.4335938-0.1845703
									c-0.0121841-0.0067711-0.2984161-0.092556-0.3154297-0.0986328
									c-0.3572235-0.1339607-1.3031845-0.3110352-2.1347656-0.3110352c-1.9179688,0-3.9941406,0.6396484-6.171875,1.9003906
									c-7.7431641,4.4672852-14.0234375,15.3515625-14.0009766,24.2631798c0,0.8260117,0.0486374,1.0671158,0.0546875,1.2124023
									c0.0793991,2.5372009,1.1558533,4.5292969,1.1796875,4.6293945
									c0.4581909,0.7598343,0.5682144,1.0132599,1.2548828,1.7597656
									c0.0595703,0.0703125,0.1083984,0.1186523,0.1650391,0.1669922
									c0.3554688,0.3535156,0.7070312,0.6293945,1.1064453,0.8706055c0.234375,0.1416016,0.3115234,0.4462891,0.171875,0.6826172
									C71.7472382,76.5396881,71.4423218,76.6149597,71.2078247,76.4788895z M68.6248169,73.8241043
									c-0.1005859-0.152832-0.2001953-0.3408203-0.2998047-0.5385742
									c0.0078125,0.0151367-0.0419922-0.0424805-0.0820312-0.1508789
									c-0.0878906-0.1689453-0.1660156-0.3378906-0.2333984-0.5063477
									c-0.2845383-0.5371323-0.7548828-2.2284775-0.7548828-2.5185547
									c-0.2035599-0.8183975-0.2978516-2.2755051-0.2978516-3.1289062c-0.0224609-9.2294884,6.4814453-20.5039024,14.5-25.1303673
									c2.4189453-1.4003906,4.765625-2.0820312,6.90625-2.0317383l-9.4306641-5.4790039
									c-2.5302734-1.3276367-5.8671875-0.9326172-9.4345703,1.1245117
									c-7.7480469,4.4750977-14.0341797,15.3598633-14.0117188,24.2631836
									c0.0205078,4.1826172,1.4160156,7.2885704,3.9296875,8.7446251
									C72.0358658,75.8065338,67.6832047,73.2768631,68.6248169,73.8241043z"></path>
							</g>
						</g>
					</g>
				</g>
			</g>
			<g>
				<g>
					<path class="st0" d="M60.9287109,69.2961502c-1.3106537-1.7273865-1.487915-3.8950882-1.4987106-6.8499947
						c-0.021595-9.1394768,6.4258652-20.3059349,14.3718338-24.8910599
						c2.3091354-1.3321075,4.5330429-2.3600273,7.1061249-2.0105934l2.1969147,1.2759171
						c-10.0768738,0.9150314-20.9220543,15.6914253-20.877594,27.8961639c0,1.971611,0.3407364,4.2645493,1.1681442,6.0112991
						L60.9287109,69.2961502z"></path>
				</g>
			</g>
			<g>
				<g>
					<g>
						<path d="M66.9568481,66.9808426c-0.0224609-9.2294884,6.4814453-20.5039024,14.5-25.1303673
							c8.1512451-4.7190552,15.0878067-0.9313316,15.1103516,8.612793V50.46278
							c0.0224609,9.2216797-6.4863281,20.4912071-14.5107422,25.1210899
							C73.6593781,80.4311676,66.9568481,76.2361526,66.9568481,66.9808426z M81.9578247,42.716198
							c-7.7431641,4.4672852-14.0234375,15.3515625-14.0009766,24.2631798c0,0.8187943,0.0489273,1.0742035,0.0546875,1.2124023
							c0.0390472,1.2478333,0.4610443,3.239624,1.1347656,4.512207c0.0205078,0.0371094,0.0351562,0.0761719,0.0449219,0.1171875
							c0.762413,1.3945084,1.64254,2.2636108,2.5263672,2.7973633c0.0458984,0.0117188,0.0771484,0.0400391,0.1181641,0.0644531
							c2.5556641,1.5224609,6.0078125,1.1787109,9.7207031-0.965332
							c7.7480469-4.4702148,14.0332031-15.3500938,14.0107422-24.2519493v-0.0004883
							C95.5467682,41.7263603,89.4685059,38.368084,81.9578247,42.716198z"></path>
					</g>
				</g>
			</g>
			<g>
				<g>
					<g>
						<g>
							<path class="st1" d="M82.2179337,59.5898895c-0.4500122,0.2600098-0.8200073,0.0499878-0.8300171-0.4799805
								c0-0.5200195,0.3699951-1.1500244,0.8200073-1.4199829c0.4599609-0.2600098,0.8300171-0.0500488,0.8300171,0.4699707
								C83.037941,58.6899261,82.6678848,59.319931,82.2179337,59.5898895z M78.3078995,58.3599091
								c0-0.8599854,0.6000366-1.9100342,1.3500366-2.3400269c0.7599487-0.4400024,1.3699951-0.0899658,1.3699951,0.7700195
								c0,0.8699951-0.6100464,1.9199829-1.3600464,2.3499756C78.9178848,59.5798798,78.3078995,59.2299042,78.3078995,58.3599091z"></path>
							<path class="st1" d="M92.392395,52.863903c0.0200195,6.5800171-4.6199951,14.6200523-10.3400269,17.9200401
								c-6.0374985,3.4652023-10.8994675,0.5026855-10.9199829-6.2200317
								c-0.0100098-6.5799522,4.6300049-14.6199913,10.3500366-17.9199791
								C87.4159927,43.2180901,92.3715668,46.0389977,92.392395,52.863903z"></path>
						</g>
					</g>
				</g>
				<g>
					<g>
						<path class="st1" d="M91.8884964,52.8621063c0.0182419,6.4331474-4.5040207,14.2569351-10.0946808,17.4847107"></path>
					</g>
					<g>
						<path d="M81.361145,70.5970535c-0.1386719-0.2392578-0.0566406-0.5449219,0.1826172-0.6831055
							c5.4462891-3.1445312,9.8623047-10.7934532,9.8447266-17.0502892
							c-0.0009766-0.2763672,0.2226562-0.5004883,0.4990234-0.5014648h0.0009766c0.2753906,0,0.4990234,0.2231445,0.5,0.4985352
							c0.0185547,6.5761719-4.6220703,14.6147423-10.3447266,17.9194298
							C81.8034439,70.9181213,81.4973984,70.835495,81.361145,70.5970535z"></path>
					</g>
				</g>
			</g>
			<g>
				<g>
					<g>
						<g>
							<g>
								<path d="M81.4878922,52.0998993c-3.0999756,1.789978-5.6099854,6.1500244-5.5999756,9.710022
									c0,3.7921524,2.8318176,5.4308395,6.1400146,3.5100098c3.0999756-1.7900391,5.6199951-6.1500244,5.6099854-9.7200317
									C87.6379166,51.8440895,84.8231735,50.1633492,81.4878922,52.0998993z M79.6678848,59.1398773
									c-0.75,0.4400024-1.3599854,0.0900269-1.3599854-0.7799683c0-0.8599854,0.6000366-1.9100342,1.3500366-2.3400269
									c0.7599487-0.4400024,1.3699951-0.0899658,1.3699951,0.7700195
									C81.0279312,57.6598969,80.4178848,58.7098846,79.6678848,59.1398773z M82.2179337,59.5898895
									c-0.4500122,0.2600098-0.8200073,0.0499878-0.8300171-0.4799805c0-0.5200195,0.3699951-1.1500244,0.8200073-1.4199829
									c0.4599609-0.2600098,0.8300171-0.0500488,0.8300171,0.4699707
									C83.037941,58.6899261,82.6678848,59.319931,82.2179337,59.5898895z"></path>
							</g>
						</g>
					</g>
				</g>
			</g>
			<g>
				<g>
					<g>
						<path class="st3" d="M83.7124023,25.9639397c0.0100098,1.5100098-1.0200195,3.2999878-2.3400269,4.0599976
							c-1.5664215,0.8950977-2.8599854,0.0201969-2.8599854-1.6300049c-0.0161819-2.4568977,2.5928345-5.2207928,4.3300171-4.210022
							C83.4024048,24.5039177,83.7124023,25.1339226,83.7124023,25.9639397z"></path>
					</g>
				</g>
			</g>
			<g>
				<g>
					<g>
						<path class="st3" d="M51.9523926,44.6539421c0.0100098,1.5200195-1.0200195,3.2999878-2.3400269,4.0599976
							c-1.4965286,0.8760376-2.8599854,0.0773544-2.8599854-1.6300049c0-1.5200195,1.0300293-3.2999878,2.3500366-4.0599976
							C50.5995255,42.1475601,51.9523926,42.9463844,51.9523926,44.6539421z"></path>
					</g>
				</g>
			</g>
			<g>
				<g>
					<g>
						<path d="M25.3855038,40.1813583c0.9787407,0.5672455,0.9795246,1.4816017,0.009243,2.0454674
							c-1.4072895,0.8178253-3.8791866,0.3837585-4.2297077-0.7780571c-0.1348305-0.4470062,0.0939713-0.9228325,0.686882-1.267395
							C22.8249435,39.6159134,24.4061165,39.6159096,25.3855038,40.1813583z"></path>
					</g>
				</g>
			</g>
			<g>
				<g>
					<polygon points="36.7247543,60.7413406 36.7247543,65.5113602 28.7447109,64.8413773 28.7547207,60.061348 					"></polygon>
				</g>
				<g>
					<path d="M36.6824341,66.0091629l-7.9794922-0.6699219c-0.2587891-0.0214844-0.4589844-0.2387695-0.4580078-0.4990234
						l0.0097656-4.7797813c0-0.2831497,0.2451134-0.5262718,0.5429688-0.4970703l7.9697266,0.6796875
						c0.2578125,0.0219727,0.4570312,0.2382812,0.4570312,0.4980469v4.7700157
						C37.2244263,65.8075027,36.9654503,66.0394897,36.6824341,66.0091629z M29.2459106,64.3817215l6.9785156,0.5854492v-3.767086
						l-6.9707031-0.5942383L29.2459106,64.3817215z"></path>
				</g>
			</g>
			<g>
				<g>
					<polygon points="36.7247543,49.7813797 36.7247543,56.5413284 28.7647305,55.8713455 28.78475,49.1113358 					"></polygon>
				</g>
				<g>
					<path d="M36.6824341,57.0394402l-7.9599609-0.6699219c-0.2597656-0.0214844-0.4589844-0.2392578-0.4580078-0.4995117
						l0.0205078-6.7602539c0-0.2996368,0.2655315-0.5257874,0.5419922-0.496582l7.9394531,0.6699219
						c0.2587891,0.0214844,0.4580078,0.2382812,0.4580078,0.4980469v6.7602539
						C37.2244263,56.8415871,36.9609642,57.0692825,36.6824341,57.0394402z M29.2654419,55.4119987l6.9589844,0.5854492V50.240612
						L29.28302,49.6551628L29.2654419,55.4119987z"></path>
				</g>
			</g>
			<g>
				<g>
					<path class="st1" d="M83.2139206,25.9625645c0.0037842,1.3348694-0.9343262,2.9597244-2.0960159,3.6304264"></path>
				</g>
				<g>
					<path d="M80.6853638,29.8431511c-0.1386719-0.2387695-0.0566406-0.5449219,0.1826172-0.6831055
						c1.0039062-0.5800781,1.8486328-2.043457,1.8457031-3.1958008c-0.0009766-0.2763672,0.2226562-0.5004883,0.4980469-0.5014648
						c0.0009766,0,0.0019531,0,0.0019531,0c0.2753906,0,0.4990234,0.2226562,0.5,0.4985352
						c0.0048828,1.5166016-1.0253906,3.3022461-2.3457031,4.0649414
						C81.1273651,30.1643887,80.8230667,30.0815945,80.6853638,29.8431511z"></path>
				</g>
			</g>
			<g>
				<g>
					<path class="st1" d="M51.4570541,44.6543388c0.0037842,1.3348694-0.9343262,2.9597244-2.0960159,3.6304245"></path>
				</g>
				<g>
					<path d="M48.9285278,48.5345573c-0.1386719-0.2392578-0.0566406-0.5449219,0.1826172-0.6831055
						c1.0039062-0.5795898,1.8486328-2.0429688,1.8457031-3.1958008c-0.0009766-0.2763672,0.2226562-0.5004883,0.4990234-0.5014648
						h0.0009766c0.2753906,0,0.4990234,0.2226562,0.5,0.4985352c0.0048828,1.5175781-1.0263672,3.3027344-2.3457031,4.0649414
						C49.3708267,48.8556213,49.0647812,48.7729988,48.9285278,48.5345573z"></path>
				</g>
			</g>
		</g>
	</g>
</g>
</svg></svg><style>@media (prefers-color-scheme: light) { :root { filter: none; } }
@media (prefers-color-scheme: dark) { :root { filter: none; } }
</style></svg>