<svg xmlns="http://www.w3.org/2000/svg" width="200" height="100" viewBox="0 0 200 100">
  <g fill="none" fill-rule="evenodd">
    <path fill="#9CA3AF" fill-rule="nonzero" d="M43.9781072 26L45.2762025 26C49.7827973 26.0980243 54.215915 27.9114731 57.3999222 31.1217677 56.2242888 32.3225649 55.024163 33.47435 53.8730219 34.6751472 52.0850794 33.0577469 49.9297515 31.8079375 47.5784846 31.3668284 44.1005691 30.6316464 40.3532375 31.2933102 37.4386463 33.2783015 34.2546391 35.361317 32.0993111 38.8901905 31.6339562 42.6641246 31.1196166 46.3890465 32.1727882 50.310017 34.5975322 53.2017327 36.9243067 56.0199303 40.4756993 57.784367 44.1495538 57.9068973 47.5784846 58.1029458 51.1543696 57.049185 53.6525907 54.6475906 55.6119797 52.9566721 56.5181972 50.3835352 56.8121055 47.8839165 52.7463732 47.8839165 48.680641 47.9084226 44.6149087 47.8839165L44.6149087 42.835667 61.7350705 42.835667C62.6167956 48.2515075 61.3431927 54.3535178 57.2284757 58.2254762 54.485331 60.9701555 50.6890147 62.5875558 46.8192214 62.9061347 43.0718898 63.2737257 39.2020964 62.5630498 35.871135 60.7496009 31.8788799 58.6175732 28.6948727 55.0151816 27.1273614 50.7756322 25.6578196 46.8791678 25.6333273 42.468076 27.0048996 38.5471056 28.2540101 34.96922 30.6542617 31.8079375 33.7402995 29.6023916 36.7038754 27.4213518 40.3042528 26.2205546 43.9781072 26zM143 27L148 27 148 61.9938736C146.341121 61.9938736 144.658879 62.0183791 143 61.9693681 143.023364 50.3292491 143 38.6646245 143 27zM72.6614066 39.2190618C75.9133578 38.6016909 79.4363049 39.2931463 82.1216282 41.2440384 84.5605916 42.972677 86.2604752 45.6891091 86.777831 48.6524895 87.4430029 52.0850718 86.6053791 55.838687 84.3881396 58.555119 81.9984482 61.592584 78.0813252 63.2224432 74.2627462 62.9754948 70.7644351 62.7779361 67.3646679 61.0246027 65.2952445 58.1600016 62.9548251 54.9990625 62.3881972 50.6527713 63.6692689 46.9485457 64.9503405 42.972677 68.5718316 39.9352121 72.6614066 39.2190618M73.4004864 43.9110808C72.0701428 44.2568085 70.8383431 45.0223485 69.9514473 46.1089213 67.5617559 48.9735224 67.7095719 53.6408465 70.3456232 56.3078889 71.8484188 57.8389688 74.1149302 58.555119 76.2089897 58.1353068 78.1552332 57.7895791 79.8551168 56.4807527 80.7912846 54.7521142 82.4172601 51.8134286 81.9491763 47.7634754 79.4609409 45.4668555 77.8596013 43.9851653 75.5191819 43.3677944 73.4004864 43.9110808zM99.6608504 39.2209731C103.383655 38.5045183 107.451621 39.5421426 110.237561 42.1609086 114.773959 46.2372898 115.267045 53.8712399 111.396314 58.5652546 109.054153 61.5298954 105.257385 63.1604479 101.509926 62.9875105 97.9350468 62.8886891 94.4094767 61.1099046 92.2892038 58.1699691 89.8977332 54.9335696 89.3799921 50.4866083 90.7359806 46.7066912 92.0919691 42.8526582 95.6421935 39.9127227 99.6608504 39.2209731M100.40048 43.9149878C99.0691463 44.2608625 97.8364295 45.0267281 96.9488734 46.0890577 94.5820571 48.9054665 94.6806744 53.5006598 97.2200711 56.1935419 98.7239856 57.799389 101.066148 58.5899599 103.235729 58.1452638 105.158767 57.7746837 106.884571 56.490006 107.821436 54.7606322 109.423968 51.7959913 108.955535 47.7443155 106.440793 45.4467189 104.838261 43.9643985 102.496099 43.3714703 100.40048 43.9149878zM121.78805 40.6655459C124.627898 38.8750494 128.406131 38.3776892 131.468228 39.9195057 132.431307 40.3422618 133.221526 41.063434 133.98705 41.7846063 134.011745 41.1131701 133.98705 40.4168658 134.011745 39.7205616 135.666265 39.7454296 137.320785 39.7205616 139 39.7454296L139 61.6790121C138.975306 64.9864571 138.135698 68.4928462 135.765042 70.9050429 133.172137 73.5659197 129.19635 74.3865639 125.615672 73.8394677 121.78805 73.2675036 118.454315 70.4574187 116.972655 66.9012937 118.454315 66.1801215 120.010058 65.6081573 121.541107 64.9367211 122.405408 66.9758977 124.158706 68.7166582 126.356502 69.1145463 128.554297 69.5124345 131.097813 68.9653383 132.530085 67.1251058 134.061133 65.2351372 134.061133 62.6488644 133.98705 60.3361397 132.851111 61.4552001 131.542311 62.4499204 129.961874 62.8229405 126.529362 63.7927928 122.751129 62.5991284 120.108835 60.2615357 117.441847 57.923943 115.86141 54.318082 116.009576 50.7370889 116.083659 46.6836037 118.355538 42.7793265 121.78805 40.6655459M126.899777 43.8486509C125.393423 44.0973309 123.985846 44.9428432 123.022767 46.1116395 120.701499 48.8968564 120.701499 53.3482297 123.047461 56.0837105 124.380955 57.700131 126.529362 58.5953792 128.603686 58.3715672 130.554538 58.1726231 132.357224 56.9292227 133.320303 55.2133302 134.950129 52.3037734 134.678492 48.3497602 132.480696 45.8132234 131.122508 44.246539 128.949407 43.4756308 126.899777 43.8486509L126.899777 43.8486509zM154.720247 41.9282148C157.664637 39.162945 162.203904 38.2247284 165.982538 39.6814331 169.564879 41.0393781 171.846781 44.4712755 173 48.0019326 167.675562 50.2240244 162.37566 52.4214264 157.051222 54.6435182 157.78732 56.0508431 158.916002 57.3347184 160.43727 57.8532065 162.571953 58.6185937 165.123757 58.3470047 166.914928 56.9149899 167.626489 56.3718119 168.19083 55.6558045 168.730635 54.9644871 170.080147 55.8780137 171.429659 56.7668505 172.779171 57.6803771 170.865317 60.5690965 167.651025 62.5936691 164.191367 62.9146379 160.363661 63.3837462 156.290588 61.9023516 153.812394 58.8901827 149.739321 54.14972 150.131906 46.1995692 154.720247 41.9282148M157.345661 46.4958481C156.511418 47.7056537 156.167905 49.1870482 156.192442 50.6437529 159.750246 49.1623583 163.30805 47.6809637 166.865855 46.1748793 166.276977 44.7922443 164.853855 43.9527874 163.406197 43.7305782 161.075222 43.3108498 158.6461 44.5700351 157.345661 46.4958481L157.345661 46.4958481z"/>
  </g>
</svg>
