<?xml version="1.0" standalone="no"?>
<!DOCTYPE svg PUBLIC "-//W3C//DTD SVG 20010904//EN"
 "http://www.w3.org/TR/2001/REC-SVG-20010904/DTD/svg10.dtd">
<svg version="1.0" xmlns="http://www.w3.org/2000/svg"
 width="700.000000pt" height="700.000000pt" viewBox="0 0 700.000000 700.000000"
 preserveAspectRatio="xMidYMid meet">
<metadata>
Created by potrace 1.14, written by Peter Selinger 2001-2017
</metadata>
<g transform="translate(0.000000,700.000000) scale(0.100000,-0.100000)"
fill="#000000" stroke="none">
<path d="M1045 6985 c-134 -21 -234 -53 -360 -115 -257 -127 -442 -314 -565
-573 -56 -117 -84 -211 -105 -347 -22 -143 -22 -4757 0 -4900 40 -261 152
-491 329 -673 140 -146 355 -276 536 -327 187 -52 88 -50 2620 -50 2532 0
2434 -2 2620 50 99 28 261 106 356 172 92 63 210 178 282 273 66 87 164 285
192 385 52 188 50 89 50 2620 0 2532 2 2434 -50 2620 -28 99 -106 261 -172
357 -68 99 -202 233 -301 301 -96 66 -258 144 -357 172 -187 52 -86 50 -2630
49 -1847 -1 -2383 -4 -2445 -14z m1252 -1429 c-3 -8 -173 -302 -376 -652
l-371 -638 0 652 0 652 376 0 c323 0 375 -2 371 -14z m1383 11 c0 -2 -268
-468 -595 -1036 l-595 -1033 453 -786 453 -787 607 -3 606 -2 -163 282 c-89
156 -294 511 -454 789 l-292 507 597 1036 597 1036 278 0 279 0 -12 -22 c-7
-13 -275 -479 -596 -1036 l-584 -1014 577 -1001 c317 -551 585 -1017 596
-1034 l20 -33 -1165 0 -1165 0 -596 1034 -595 1034 597 1036 596 1036 278 0
c153 0 278 -1 278 -3z m-1383 -4123 c4 -12 -48 -14 -371 -14 l-376 0 0 652 0
652 371 -638 c203 -350 373 -644 376 -652z"/>
</g>
</svg>
