<svg width="1560" height="724" viewBox="0 0 1560 724" fill="none" xmlns="http://www.w3.org/2000/svg">
<g clip-path="url(#clip0_555_11)">
<path d="M1740 -178H-180V902H1740V-178Z" fill="none"/>
<path fill-rule="evenodd" clip-rule="evenodd" d="M1517.35 789.121L1593.1 695.63L1602.63 703.351L1526.93 796.882L1517.35 789.121Z" fill="black"/>
<path fill-rule="evenodd" clip-rule="evenodd" d="M1450.68 791.784L1528.57 695.656L1538.37 703.593L1460.54 799.764L1450.68 791.784Z" fill="black"/>
<path fill-rule="evenodd" clip-rule="evenodd" d="M1386.4 791.784L1464.28 695.656L1474.09 703.593L1396.25 799.764L1386.4 791.784Z" fill="black"/>
<path fill-rule="evenodd" clip-rule="evenodd" d="M1322.11 791.784L1400 695.656L1409.8 703.593L1331.96 799.764L1322.11 791.784Z" fill="black"/>
<path fill-rule="evenodd" clip-rule="evenodd" d="M1257.82 791.784L1335.71 695.656L1345.51 703.593L1267.68 799.764L1257.82 791.784Z" fill="black"/>
<path fill-rule="evenodd" clip-rule="evenodd" d="M1193.54 791.784L1271.42 695.656L1281.23 703.593L1203.39 799.764L1193.54 791.784Z" fill="black"/>
<path fill-rule="evenodd" clip-rule="evenodd" d="M1129.25 791.784L1207.14 695.656L1216.94 703.593L1139.11 799.764L1129.25 791.784Z" fill="black"/>
<path fill-rule="evenodd" clip-rule="evenodd" d="M1064.97 791.784L1142.85 695.656L1152.66 703.593L1074.82 799.764L1064.97 791.784Z" fill="black"/>
<path fill-rule="evenodd" clip-rule="evenodd" d="M1000.68 791.784L1078.57 695.656L1088.37 703.593L1010.54 799.764L1000.68 791.784Z" fill="black"/>
<path fill-rule="evenodd" clip-rule="evenodd" d="M936.396 791.784L1014.28 695.656L1024.09 703.593L946.251 799.764L936.396 791.784Z" fill="black"/>
<path fill-rule="evenodd" clip-rule="evenodd" d="M872.11 791.784L949.996 695.656L959.8 703.593L881.965 799.764L872.11 791.784Z" fill="black"/>
<path fill-rule="evenodd" clip-rule="evenodd" d="M807.824 791.784L885.711 695.656L895.514 703.593L817.679 799.764L807.824 791.784Z" fill="black"/>
<path fill-rule="evenodd" clip-rule="evenodd" d="M743.538 791.784L821.425 695.656L831.228 703.593L753.393 799.764L743.538 791.784Z" fill="black"/>
<path fill-rule="evenodd" clip-rule="evenodd" d="M679.252 791.784L757.139 695.656L766.942 703.593L689.108 799.764L679.252 791.784Z" fill="black"/>
<path fill-rule="evenodd" clip-rule="evenodd" d="M614.967 791.784L692.853 695.656L702.657 703.593L624.822 799.764L614.967 791.784Z" fill="black"/>
<path fill-rule="evenodd" clip-rule="evenodd" d="M550.681 791.784L628.568 695.656L638.371 703.593L560.536 799.764L550.681 791.784Z" fill="black"/>
<path fill-rule="evenodd" clip-rule="evenodd" d="M486.396 791.784L564.282 695.656L574.086 703.593L496.251 799.764L486.396 791.784Z" fill="black"/>
<path fill-rule="evenodd" clip-rule="evenodd" d="M422.109 791.784L499.996 695.656L509.799 703.593L431.964 799.764L422.109 791.784Z" fill="black"/>
<path fill-rule="evenodd" clip-rule="evenodd" d="M357.824 791.784L435.71 695.656L445.514 703.593L367.679 799.764L357.824 791.784Z" fill="black"/>
<path fill-rule="evenodd" clip-rule="evenodd" d="M293.54 791.784L371.426 695.656L381.23 703.593L303.395 799.764L293.54 791.784Z" fill="black"/>
<path fill-rule="evenodd" clip-rule="evenodd" d="M229.254 791.784L307.141 695.656L316.944 703.593L239.109 799.764L229.254 791.784Z" fill="black"/>
<path fill-rule="evenodd" clip-rule="evenodd" d="M164.969 791.784L242.855 695.656L252.659 703.593L174.824 799.764L164.969 791.784Z" fill="black"/>
<path fill-rule="evenodd" clip-rule="evenodd" d="M100.683 791.784L178.57 695.656L188.373 703.593L110.538 799.764L100.683 791.784Z" fill="black"/>
<path fill-rule="evenodd" clip-rule="evenodd" d="M36.3975 791.784L114.284 695.656L124.087 703.593L46.2525 799.764L36.3975 791.784Z" fill="black"/>
<path fill-rule="evenodd" clip-rule="evenodd" d="M-27.8906 791.784L49.9969 695.656L59.8004 703.593L-18.0345 799.764L-27.8906 791.784Z" fill="black"/>
<path fill-rule="evenodd" clip-rule="evenodd" d="M1521.24 720.487L1593.5 631.303L1602.59 638.668L1530.38 727.893L1521.24 720.487Z" fill="black"/>
<path fill-rule="evenodd" clip-rule="evenodd" d="M1452.63 725.317L1528.77 631.35L1538.35 639.11L1462.27 733.119L1452.63 725.317Z" fill="black"/>
<path fill-rule="evenodd" clip-rule="evenodd" d="M1386.4 727.5L1464.28 631.372L1474.09 639.309L1396.25 735.48L1386.4 727.5Z" fill="black"/>
<path fill-rule="evenodd" clip-rule="evenodd" d="M1322.11 727.5L1400 631.372L1409.8 639.309L1331.96 735.48L1322.11 727.5Z" fill="black"/>
<path fill-rule="evenodd" clip-rule="evenodd" d="M1257.82 727.5L1335.71 631.372L1345.51 639.309L1267.68 735.48L1257.82 727.5Z" fill="black"/>
<path fill-rule="evenodd" clip-rule="evenodd" d="M1193.54 727.5L1271.42 631.372L1281.23 639.309L1203.39 735.48L1193.54 727.5Z" fill="black"/>
<path fill-rule="evenodd" clip-rule="evenodd" d="M1129.25 727.5L1207.14 631.372L1216.94 639.309L1139.11 735.48L1129.25 727.5Z" fill="black"/>
<path fill-rule="evenodd" clip-rule="evenodd" d="M1064.97 727.5L1142.85 631.372L1152.66 639.309L1074.82 735.48L1064.97 727.5Z" fill="black"/>
<path fill-rule="evenodd" clip-rule="evenodd" d="M1000.68 727.5L1078.57 631.372L1088.37 639.309L1010.54 735.48L1000.68 727.5Z" fill="black"/>
<path fill-rule="evenodd" clip-rule="evenodd" d="M936.396 727.5L1014.28 631.372L1024.09 639.309L946.251 735.48L936.396 727.5Z" fill="black"/>
<path fill-rule="evenodd" clip-rule="evenodd" d="M872.11 727.5L949.996 631.372L959.8 639.309L881.965 735.48L872.11 727.5Z" fill="black"/>
<path fill-rule="evenodd" clip-rule="evenodd" d="M807.824 727.5L885.711 631.372L895.514 639.309L817.679 735.48L807.824 727.5Z" fill="black"/>
<path fill-rule="evenodd" clip-rule="evenodd" d="M743.538 727.5L821.425 631.372L831.228 639.309L753.393 735.48L743.538 727.5Z" fill="black"/>
<path fill-rule="evenodd" clip-rule="evenodd" d="M679.252 727.5L757.139 631.372L766.942 639.309L689.108 735.48L679.252 727.5Z" fill="black"/>
<path fill-rule="evenodd" clip-rule="evenodd" d="M614.967 727.5L692.853 631.372L702.657 639.309L624.822 735.48L614.967 727.5Z" fill="black"/>
<path fill-rule="evenodd" clip-rule="evenodd" d="M550.681 727.5L628.568 631.372L638.371 639.309L560.536 735.48L550.681 727.5Z" fill="black"/>
<path fill-rule="evenodd" clip-rule="evenodd" d="M486.396 727.5L564.282 631.372L574.086 639.309L496.251 735.48L486.396 727.5Z" fill="black"/>
<path fill-rule="evenodd" clip-rule="evenodd" d="M422.109 727.5L499.996 631.372L509.799 639.309L431.964 735.48L422.109 727.5Z" fill="black"/>
<path fill-rule="evenodd" clip-rule="evenodd" d="M357.824 727.5L435.71 631.372L445.514 639.309L367.679 735.48L357.824 727.5Z" fill="black"/>
<path fill-rule="evenodd" clip-rule="evenodd" d="M293.54 727.5L371.426 631.372L381.23 639.309L303.395 735.48L293.54 727.5Z" fill="black"/>
<path fill-rule="evenodd" clip-rule="evenodd" d="M229.254 727.5L307.141 631.372L316.944 639.309L239.109 735.48L229.254 727.5Z" fill="black"/>
<path fill-rule="evenodd" clip-rule="evenodd" d="M164.969 727.5L242.855 631.372L252.659 639.309L174.824 735.48L164.969 727.5Z" fill="black"/>
<path fill-rule="evenodd" clip-rule="evenodd" d="M100.683 727.5L178.57 631.372L188.373 639.309L110.538 735.48L100.683 727.5Z" fill="black"/>
<path fill-rule="evenodd" clip-rule="evenodd" d="M36.3975 727.5L114.284 631.372L124.087 639.309L46.2525 735.48L36.3975 727.5Z" fill="black"/>
<path fill-rule="evenodd" clip-rule="evenodd" d="M-27.8906 727.5L49.9969 631.372L59.8004 639.309L-18.0345 735.48L-27.8906 727.5Z" fill="black"/>
<path fill-rule="evenodd" clip-rule="evenodd" d="M1525.12 651.851L1593.89 566.977L1602.55 573.986L1533.82 658.899L1525.12 651.851Z" fill="black"/>
<path fill-rule="evenodd" clip-rule="evenodd" d="M1456.52 656.684L1529.17 567.022L1538.31 574.428L1465.71 664.128L1456.52 656.684Z" fill="black"/>
<path fill-rule="evenodd" clip-rule="evenodd" d="M1387.92 661.513L1464.44 567.069L1474.07 574.869L1397.6 669.354L1387.92 661.513Z" fill="black"/>
<path fill-rule="evenodd" clip-rule="evenodd" d="M1322.11 663.215L1400 567.086L1409.8 575.023L1331.96 671.195L1322.11 663.215Z" fill="black"/>
<path fill-rule="evenodd" clip-rule="evenodd" d="M1257.82 663.215L1335.71 567.086L1345.51 575.023L1267.68 671.195L1257.82 663.215Z" fill="black"/>
<path fill-rule="evenodd" clip-rule="evenodd" d="M1193.54 663.215L1271.42 567.086L1281.23 575.023L1203.39 671.195L1193.54 663.215Z" fill="black"/>
<path fill-rule="evenodd" clip-rule="evenodd" d="M1129.25 663.215L1207.14 567.086L1216.94 575.023L1139.11 671.195L1129.25 663.215Z" fill="black"/>
<path fill-rule="evenodd" clip-rule="evenodd" d="M1064.97 663.215L1142.85 567.086L1152.66 575.023L1074.82 671.195L1064.97 663.215Z" fill="black"/>
<path fill-rule="evenodd" clip-rule="evenodd" d="M1000.68 663.215L1078.57 567.086L1088.37 575.023L1010.54 671.195L1000.68 663.215Z" fill="black"/>
<path fill-rule="evenodd" clip-rule="evenodd" d="M936.396 663.215L1014.28 567.086L1024.09 575.023L946.251 671.195L936.396 663.215Z" fill="black"/>
<path fill-rule="evenodd" clip-rule="evenodd" d="M872.11 663.215L949.996 567.086L959.8 575.023L881.965 671.195L872.11 663.215Z" fill="black"/>
<path fill-rule="evenodd" clip-rule="evenodd" d="M807.824 663.215L885.711 567.086L895.514 575.023L817.679 671.195L807.824 663.215Z" fill="black"/>
<path fill-rule="evenodd" clip-rule="evenodd" d="M743.538 663.215L821.425 567.086L831.228 575.023L753.393 671.195L743.538 663.215Z" fill="black"/>
<path fill-rule="evenodd" clip-rule="evenodd" d="M679.252 663.215L757.139 567.086L766.942 575.023L689.108 671.195L679.252 663.215Z" fill="black"/>
<path fill-rule="evenodd" clip-rule="evenodd" d="M614.967 663.215L692.853 567.086L702.657 575.023L624.822 671.195L614.967 663.215Z" fill="black"/>
<path fill-rule="evenodd" clip-rule="evenodd" d="M550.681 663.215L628.568 567.086L638.371 575.023L560.536 671.195L550.681 663.215Z" fill="black"/>
<path fill-rule="evenodd" clip-rule="evenodd" d="M486.396 663.215L564.282 567.086L574.086 575.023L496.251 671.195L486.396 663.215Z" fill="black"/>
<path fill-rule="evenodd" clip-rule="evenodd" d="M422.109 663.215L499.996 567.086L509.799 575.023L431.964 671.195L422.109 663.215Z" fill="black"/>
<path fill-rule="evenodd" clip-rule="evenodd" d="M357.824 663.215L435.71 567.086L445.514 575.023L367.679 671.195L357.824 663.215Z" fill="black"/>
<path fill-rule="evenodd" clip-rule="evenodd" d="M293.54 663.215L371.426 567.086L381.23 575.023L303.395 671.195L293.54 663.215Z" fill="black"/>
<path fill-rule="evenodd" clip-rule="evenodd" d="M229.254 663.215L307.141 567.086L316.944 575.023L239.109 671.195L229.254 663.215Z" fill="black"/>
<path fill-rule="evenodd" clip-rule="evenodd" d="M164.969 663.215L242.855 567.086L252.659 575.023L174.824 671.195L164.969 663.215Z" fill="black"/>
<path fill-rule="evenodd" clip-rule="evenodd" d="M100.683 663.215L178.57 567.086L188.373 575.023L110.538 671.195L100.683 663.215Z" fill="black"/>
<path fill-rule="evenodd" clip-rule="evenodd" d="M36.3975 663.215L114.284 567.086L124.087 575.023L46.2525 671.195L36.3975 663.215Z" fill="black"/>
<path fill-rule="evenodd" clip-rule="evenodd" d="M-27.8906 663.215L49.9969 567.086L59.8004 575.023L-18.0345 671.195L-27.8906 663.215Z" fill="black"/>
<path fill-rule="evenodd" clip-rule="evenodd" d="M1529.01 583.218L1594.29 502.648L1602.51 509.302L1537.27 589.908L1529.01 583.218Z" fill="black"/>
<path fill-rule="evenodd" clip-rule="evenodd" d="M1460.41 588.048L1529.56 502.696L1538.27 509.743L1469.16 595.134L1460.41 588.048Z" fill="black"/>
<path fill-rule="evenodd" clip-rule="evenodd" d="M1391.81 592.878L1464.84 502.74L1474.03 510.185L1401.05 600.36L1391.81 592.878Z" fill="black"/>
<path fill-rule="evenodd" clip-rule="evenodd" d="M1323.2 597.708L1400.11 502.788L1409.79 510.626L1332.93 605.589L1323.2 597.708Z" fill="black"/>
<path fill-rule="evenodd" clip-rule="evenodd" d="M1257.82 598.929L1335.71 502.801L1345.51 510.738L1267.68 606.909L1257.82 598.929Z" fill="black"/>
<path fill-rule="evenodd" clip-rule="evenodd" d="M1193.54 598.929L1271.42 502.801L1281.23 510.738L1203.39 606.909L1193.54 598.929Z" fill="black"/>
<path fill-rule="evenodd" clip-rule="evenodd" d="M1129.25 598.929L1207.14 502.801L1216.94 510.738L1139.11 606.909L1129.25 598.929Z" fill="black"/>
<path fill-rule="evenodd" clip-rule="evenodd" d="M1064.97 598.929L1142.85 502.801L1152.66 510.738L1074.82 606.909L1064.97 598.929Z" fill="black"/>
<path fill-rule="evenodd" clip-rule="evenodd" d="M1000.68 598.929L1078.57 502.801L1088.37 510.738L1010.54 606.909L1000.68 598.929Z" fill="black"/>
<path fill-rule="evenodd" clip-rule="evenodd" d="M936.396 598.929L1014.28 502.801L1024.09 510.738L946.251 606.909L936.396 598.929Z" fill="black"/>
<path fill-rule="evenodd" clip-rule="evenodd" d="M872.11 598.929L949.996 502.801L959.8 510.738L881.965 606.909L872.11 598.929Z" fill="black"/>
<path fill-rule="evenodd" clip-rule="evenodd" d="M807.824 598.929L885.711 502.801L895.514 510.738L817.679 606.909L807.824 598.929Z" fill="black"/>
<path fill-rule="evenodd" clip-rule="evenodd" d="M743.538 598.929L821.425 502.801L831.228 510.738L753.393 606.909L743.538 598.929Z" fill="black"/>
<path fill-rule="evenodd" clip-rule="evenodd" d="M679.252 598.929L757.139 502.801L766.942 510.738L689.108 606.909L679.252 598.929Z" fill="black"/>
<path fill-rule="evenodd" clip-rule="evenodd" d="M614.967 598.929L692.853 502.801L702.657 510.738L624.822 606.909L614.967 598.929Z" fill="black"/>
<path fill-rule="evenodd" clip-rule="evenodd" d="M550.681 598.929L628.568 502.801L638.371 510.738L560.536 606.909L550.681 598.929Z" fill="black"/>
<path fill-rule="evenodd" clip-rule="evenodd" d="M486.396 598.929L564.282 502.801L574.086 510.738L496.251 606.909L486.396 598.929Z" fill="black"/>
<path fill-rule="evenodd" clip-rule="evenodd" d="M422.109 598.929L499.996 502.801L509.799 510.738L431.964 606.909L422.109 598.929Z" fill="black"/>
<path fill-rule="evenodd" clip-rule="evenodd" d="M357.824 598.929L435.71 502.801L445.514 510.738L367.679 606.909L357.824 598.929Z" fill="black"/>
<path fill-rule="evenodd" clip-rule="evenodd" d="M293.54 598.929L371.426 502.801L381.23 510.738L303.395 606.909L293.54 598.929Z" fill="black"/>
<path fill-rule="evenodd" clip-rule="evenodd" d="M229.254 598.929L307.141 502.801L316.944 510.738L239.109 606.909L229.254 598.929Z" fill="black"/>
<path fill-rule="evenodd" clip-rule="evenodd" d="M164.969 598.929L242.855 502.801L252.659 510.738L174.824 606.909L164.969 598.929Z" fill="black"/>
<path fill-rule="evenodd" clip-rule="evenodd" d="M100.683 598.929L178.57 502.801L188.373 510.738L110.538 606.909L100.683 598.929Z" fill="black"/>
<path fill-rule="evenodd" clip-rule="evenodd" d="M36.3975 598.929L114.284 502.801L124.087 510.738L46.2525 606.909L36.3975 598.929Z" fill="black"/>
<path fill-rule="evenodd" clip-rule="evenodd" d="M-27.8906 598.929L49.9969 502.801L59.8004 510.738L-18.0345 606.909L-27.8906 598.929Z" fill="black"/>
<path fill-rule="evenodd" clip-rule="evenodd" d="M1532.9 514.582L1594.69 438.322L1602.46 444.62L1540.72 520.914L1532.9 514.582Z" fill="black"/>
<path fill-rule="evenodd" clip-rule="evenodd" d="M1464.3 519.412L1529.96 438.367L1538.23 445.061L1472.6 526.143L1464.3 519.412Z" fill="black"/>
<path fill-rule="evenodd" clip-rule="evenodd" d="M1395.69 524.242L1465.24 438.414L1473.99 445.503L1404.49 531.369L1395.69 524.242Z" fill="black"/>
<path fill-rule="evenodd" clip-rule="evenodd" d="M1327.09 529.074L1400.51 438.461L1409.75 445.944L1336.38 536.595L1327.09 529.074Z" fill="black"/>
<path fill-rule="evenodd" clip-rule="evenodd" d="M1258.49 533.904L1335.78 438.506L1345.51 446.385L1268.27 541.824L1258.49 533.904Z" fill="black"/>
<path fill-rule="evenodd" clip-rule="evenodd" d="M1193.54 534.643L1271.42 438.515L1281.23 446.452L1203.39 542.623L1193.54 534.643Z" fill="black"/>
<path fill-rule="evenodd" clip-rule="evenodd" d="M1129.25 534.643L1207.14 438.515L1216.94 446.452L1139.11 542.623L1129.25 534.643Z" fill="black"/>
<path fill-rule="evenodd" clip-rule="evenodd" d="M1064.97 534.643L1142.85 438.515L1152.66 446.452L1074.82 542.623L1064.97 534.643Z" fill="black"/>
<path fill-rule="evenodd" clip-rule="evenodd" d="M1000.68 534.643L1078.57 438.515L1088.37 446.452L1010.54 542.623L1000.68 534.643Z" fill="black"/>
<path fill-rule="evenodd" clip-rule="evenodd" d="M936.396 534.643L1014.28 438.515L1024.09 446.452L946.251 542.623L936.396 534.643Z" fill="black"/>
<path fill-rule="evenodd" clip-rule="evenodd" d="M872.11 534.643L949.996 438.515L959.8 446.452L881.965 542.623L872.11 534.643Z" fill="black"/>
<path fill-rule="evenodd" clip-rule="evenodd" d="M807.824 534.643L885.711 438.515L895.514 446.452L817.679 542.623L807.824 534.643Z" fill="black"/>
<path fill-rule="evenodd" clip-rule="evenodd" d="M743.538 534.643L821.425 438.515L831.228 446.452L753.393 542.623L743.538 534.643Z" fill="black"/>
<path fill-rule="evenodd" clip-rule="evenodd" d="M679.252 534.643L757.139 438.515L766.942 446.452L689.108 542.623L679.252 534.643Z" fill="black"/>
<path fill-rule="evenodd" clip-rule="evenodd" d="M614.967 534.643L692.853 438.515L702.657 446.452L624.822 542.623L614.967 534.643Z" fill="black"/>
<path fill-rule="evenodd" clip-rule="evenodd" d="M550.681 534.643L628.568 438.515L638.371 446.452L560.536 542.623L550.681 534.643Z" fill="black"/>
<path fill-rule="evenodd" clip-rule="evenodd" d="M486.396 534.643L564.282 438.515L574.086 446.452L496.251 542.623L486.396 534.643Z" fill="black"/>
<path fill-rule="evenodd" clip-rule="evenodd" d="M422.109 534.643L499.996 438.515L509.799 446.452L431.964 542.623L422.109 534.643Z" fill="black"/>
<path fill-rule="evenodd" clip-rule="evenodd" d="M357.824 534.643L435.71 438.515L445.514 446.452L367.679 542.623L357.824 534.643Z" fill="black"/>
<path fill-rule="evenodd" clip-rule="evenodd" d="M293.54 534.643L371.426 438.515L381.23 446.452L303.395 542.623L293.54 534.643Z" fill="black"/>
<path fill-rule="evenodd" clip-rule="evenodd" d="M229.254 534.643L307.141 438.515L316.944 446.452L239.109 542.623L229.254 534.643Z" fill="black"/>
<path fill-rule="evenodd" clip-rule="evenodd" d="M164.969 534.643L242.855 438.515L252.659 446.452L174.824 542.623L164.969 534.643Z" fill="black"/>
<path fill-rule="evenodd" clip-rule="evenodd" d="M100.683 534.643L178.57 438.515L188.373 446.452L110.538 542.623L100.683 534.643Z" fill="black"/>
<path fill-rule="evenodd" clip-rule="evenodd" d="M36.3975 534.643L114.284 438.515L124.087 446.452L46.2525 542.623L36.3975 534.643Z" fill="black"/>
<path fill-rule="evenodd" clip-rule="evenodd" d="M-27.8906 534.643L49.9969 438.515L59.8004 446.452L-18.0345 542.623L-27.8906 534.643Z" fill="black"/>
<path fill-rule="evenodd" clip-rule="evenodd" d="M1536.79 445.946L1595.09 373.991L1602.42 379.933L1544.16 451.921L1536.79 445.946Z" fill="black"/>
<path fill-rule="evenodd" clip-rule="evenodd" d="M1468.18 450.776L1530.36 374.038L1538.18 380.375L1476.05 457.147L1468.18 450.776Z" fill="black"/>
<path fill-rule="evenodd" clip-rule="evenodd" d="M1399.58 455.606L1465.63 374.083L1473.94 380.816L1407.94 462.375L1399.58 455.606Z" fill="black"/>
<path fill-rule="evenodd" clip-rule="evenodd" d="M1330.98 460.436L1400.91 374.13L1409.71 381.257L1339.83 467.602L1330.98 460.436Z" fill="black"/>
<path fill-rule="evenodd" clip-rule="evenodd" d="M1262.37 465.266L1336.18 374.178L1345.46 381.699L1271.71 472.828L1262.37 465.266Z" fill="black"/>
<path fill-rule="evenodd" clip-rule="evenodd" d="M1193.77 470.096L1271.45 374.223L1281.23 382.141L1203.6 478.057L1193.77 470.096Z" fill="black"/>
<path fill-rule="evenodd" clip-rule="evenodd" d="M1129.25 470.356L1207.14 374.227L1216.94 382.164L1139.11 478.336L1129.25 470.356Z" fill="black"/>
<path fill-rule="evenodd" clip-rule="evenodd" d="M1064.97 470.356L1142.85 374.227L1152.66 382.164L1074.82 478.336L1064.97 470.356Z" fill="black"/>
<path fill-rule="evenodd" clip-rule="evenodd" d="M1000.68 470.356L1078.57 374.227L1088.37 382.164L1010.54 478.336L1000.68 470.356Z" fill="black"/>
<path fill-rule="evenodd" clip-rule="evenodd" d="M936.396 470.356L1014.28 374.227L1024.09 382.164L946.251 478.336L936.396 470.356Z" fill="black"/>
<path fill-rule="evenodd" clip-rule="evenodd" d="M872.11 470.356L949.996 374.227L959.8 382.164L881.965 478.336L872.11 470.356Z" fill="black"/>
<path fill-rule="evenodd" clip-rule="evenodd" d="M807.824 470.356L885.711 374.227L895.514 382.164L817.679 478.336L807.824 470.356Z" fill="black"/>
<path fill-rule="evenodd" clip-rule="evenodd" d="M743.538 470.356L821.425 374.227L831.228 382.164L753.393 478.336L743.538 470.356Z" fill="black"/>
<path fill-rule="evenodd" clip-rule="evenodd" d="M679.252 470.356L757.139 374.227L766.942 382.164L689.108 478.336L679.252 470.356Z" fill="black"/>
<path fill-rule="evenodd" clip-rule="evenodd" d="M614.967 470.356L692.853 374.227L702.657 382.164L624.822 478.336L614.967 470.356Z" fill="black"/>
<path fill-rule="evenodd" clip-rule="evenodd" d="M550.681 470.356L628.568 374.227L638.371 382.164L560.536 478.336L550.681 470.356Z" fill="black"/>
<path fill-rule="evenodd" clip-rule="evenodd" d="M486.396 470.356L564.282 374.227L574.086 382.164L496.251 478.336L486.396 470.356Z" fill="black"/>
<path fill-rule="evenodd" clip-rule="evenodd" d="M422.109 470.356L499.996 374.227L509.799 382.164L431.964 478.336L422.109 470.356Z" fill="black"/>
<path fill-rule="evenodd" clip-rule="evenodd" d="M357.824 470.356L435.71 374.227L445.514 382.164L367.679 478.336L357.824 470.356Z" fill="black"/>
<path fill-rule="evenodd" clip-rule="evenodd" d="M293.54 470.356L371.426 374.227L381.23 382.164L303.395 478.336L293.54 470.356Z" fill="black"/>
<path fill-rule="evenodd" clip-rule="evenodd" d="M229.254 470.356L307.141 374.227L316.944 382.164L239.109 478.336L229.254 470.356Z" fill="black"/>
<path fill-rule="evenodd" clip-rule="evenodd" d="M164.969 470.356L242.855 374.227L252.659 382.164L174.824 478.336L164.969 470.356Z" fill="black"/>
<path fill-rule="evenodd" clip-rule="evenodd" d="M100.683 470.356L178.57 374.227L188.373 382.164L110.538 478.336L100.683 470.356Z" fill="black"/>
<path fill-rule="evenodd" clip-rule="evenodd" d="M36.3975 470.356L114.284 374.227L124.087 382.164L46.2525 478.336L36.3975 470.356Z" fill="black"/>
<path fill-rule="evenodd" clip-rule="evenodd" d="M-27.8906 470.356L49.9969 374.227L59.8004 382.164L-18.0345 478.336L-27.8906 470.356Z" fill="black"/>
<path fill-rule="evenodd" clip-rule="evenodd" d="M1540.67 377.31L1595.48 309.665L1602.38 315.251L1547.61 382.927L1540.67 377.31Z" fill="black"/>
<path fill-rule="evenodd" clip-rule="evenodd" d="M1472.07 382.14L1530.76 309.71L1538.14 315.693L1479.5 388.155L1472.07 382.14Z" fill="black"/>
<path fill-rule="evenodd" clip-rule="evenodd" d="M1403.47 386.971L1466.03 309.757L1473.9 316.134L1411.39 393.382L1403.47 386.971Z" fill="black"/>
<path fill-rule="evenodd" clip-rule="evenodd" d="M1334.86 391.801L1401.3 309.804L1409.66 316.576L1343.27 398.611L1334.86 391.801Z" fill="black"/>
<path fill-rule="evenodd" clip-rule="evenodd" d="M1266.26 396.631L1336.58 309.849L1345.43 317.017L1275.16 403.837L1266.26 396.631Z" fill="black"/>
<path fill-rule="evenodd" clip-rule="evenodd" d="M1197.66 401.463L1271.85 309.896L1281.19 317.458L1207.05 409.063L1197.66 401.463Z" fill="black"/>
<path fill-rule="evenodd" clip-rule="evenodd" d="M1129.25 406.07L1207.14 309.941L1216.94 317.878L1139.11 414.05L1129.25 406.07Z" fill="black"/>
<path fill-rule="evenodd" clip-rule="evenodd" d="M1064.97 406.07L1142.85 309.941L1152.66 317.878L1074.82 414.05L1064.97 406.07Z" fill="black"/>
<path fill-rule="evenodd" clip-rule="evenodd" d="M1000.68 406.07L1078.57 309.941L1088.37 317.878L1010.54 414.05L1000.68 406.07Z" fill="black"/>
<path fill-rule="evenodd" clip-rule="evenodd" d="M936.396 406.07L1014.28 309.941L1024.09 317.878L946.251 414.05L936.396 406.07Z" fill="black"/>
<path fill-rule="evenodd" clip-rule="evenodd" d="M872.11 406.07L949.996 309.941L959.8 317.878L881.965 414.05L872.11 406.07Z" fill="black"/>
<path fill-rule="evenodd" clip-rule="evenodd" d="M807.824 406.07L885.711 309.941L895.514 317.878L817.679 414.05L807.824 406.07Z" fill="black"/>
<path fill-rule="evenodd" clip-rule="evenodd" d="M743.538 406.07L821.425 309.941L831.228 317.878L753.393 414.05L743.538 406.07Z" fill="black"/>
<path fill-rule="evenodd" clip-rule="evenodd" d="M679.252 406.07L757.139 309.941L766.942 317.878L689.108 414.05L679.252 406.07Z" fill="black"/>
<path fill-rule="evenodd" clip-rule="evenodd" d="M614.967 406.07L692.853 309.941L702.657 317.878L624.822 414.05L614.967 406.07Z" fill="black"/>
<path fill-rule="evenodd" clip-rule="evenodd" d="M550.681 406.07L628.568 309.941L638.371 317.878L560.536 414.05L550.681 406.07Z" fill="black"/>
<path fill-rule="evenodd" clip-rule="evenodd" d="M486.396 406.07L564.282 309.941L574.086 317.878L496.251 414.05L486.396 406.07Z" fill="black"/>
<path fill-rule="evenodd" clip-rule="evenodd" d="M422.109 406.07L499.996 309.941L509.799 317.878L431.964 414.05L422.109 406.07Z" fill="black"/>
<path fill-rule="evenodd" clip-rule="evenodd" d="M357.824 406.07L435.71 309.941L445.514 317.878L367.679 414.05L357.824 406.07Z" fill="black"/>
<path fill-rule="evenodd" clip-rule="evenodd" d="M293.54 406.07L371.426 309.941L381.23 317.878L303.395 414.05L293.54 406.07Z" fill="black"/>
<path fill-rule="evenodd" clip-rule="evenodd" d="M229.254 406.07L307.141 309.941L316.944 317.878L239.109 414.05L229.254 406.07Z" fill="black"/>
<path fill-rule="evenodd" clip-rule="evenodd" d="M164.969 406.07L242.855 309.941L252.659 317.878L174.824 414.05L164.969 406.07Z" fill="black"/>
<path fill-rule="evenodd" clip-rule="evenodd" d="M100.683 406.07L178.57 309.941L188.373 317.878L110.538 414.05L100.683 406.07Z" fill="black"/>
<path fill-rule="evenodd" clip-rule="evenodd" d="M36.3975 406.07L114.284 309.941L124.087 317.878L46.2525 414.05L36.3975 406.07Z" fill="black"/>
<path fill-rule="evenodd" clip-rule="evenodd" d="M-27.8906 406.07L49.9969 309.941L59.8004 317.878L-18.0345 414.05L-27.8906 406.07Z" fill="black"/>
<path fill-rule="evenodd" clip-rule="evenodd" d="M1544.56 308.677L1595.88 245.336L1602.34 250.567L1551.06 313.936L1544.56 308.677Z" fill="black"/>
<path fill-rule="evenodd" clip-rule="evenodd" d="M1475.96 313.507L1531.15 245.383L1538.1 251.008L1482.94 319.162L1475.96 313.507Z" fill="black"/>
<path fill-rule="evenodd" clip-rule="evenodd" d="M1407.35 318.337L1466.43 245.428L1473.86 251.45L1414.83 324.391L1407.35 318.337Z" fill="black"/>
<path fill-rule="evenodd" clip-rule="evenodd" d="M1338.75 323.167L1401.7 245.476L1409.62 251.891L1346.72 329.617L1338.75 323.167Z" fill="black"/>
<path fill-rule="evenodd" clip-rule="evenodd" d="M1270.15 327.997L1336.97 245.523L1345.38 252.333L1278.61 334.843L1270.15 327.997Z" fill="black"/>
<path fill-rule="evenodd" clip-rule="evenodd" d="M1201.54 332.827L1272.24 245.568L1281.14 252.774L1210.49 340.072L1201.54 332.827Z" fill="black"/>
<path fill-rule="evenodd" clip-rule="evenodd" d="M1132.94 337.657L1207.52 245.615L1216.91 253.216L1142.38 345.299L1132.94 337.657Z" fill="black"/>
<path fill-rule="evenodd" clip-rule="evenodd" d="M1064.97 341.784L1142.85 245.656L1152.66 253.593L1074.82 349.764L1064.97 341.784Z" fill="black"/>
<path fill-rule="evenodd" clip-rule="evenodd" d="M1000.68 341.784L1078.57 245.656L1088.37 253.593L1010.54 349.764L1000.68 341.784Z" fill="black"/>
<path fill-rule="evenodd" clip-rule="evenodd" d="M936.396 341.784L1014.28 245.656L1024.09 253.593L946.251 349.764L936.396 341.784Z" fill="black"/>
<path fill-rule="evenodd" clip-rule="evenodd" d="M872.11 341.784L949.996 245.656L959.8 253.593L881.965 349.764L872.11 341.784Z" fill="black"/>
<path fill-rule="evenodd" clip-rule="evenodd" d="M807.824 341.784L885.711 245.656L895.514 253.593L817.679 349.764L807.824 341.784Z" fill="black"/>
<path fill-rule="evenodd" clip-rule="evenodd" d="M743.538 341.784L821.425 245.656L831.228 253.593L753.393 349.764L743.538 341.784Z" fill="black"/>
<path fill-rule="evenodd" clip-rule="evenodd" d="M679.252 341.784L757.139 245.656L766.942 253.593L689.108 349.764L679.252 341.784Z" fill="black"/>
<path fill-rule="evenodd" clip-rule="evenodd" d="M614.967 341.784L692.853 245.656L702.657 253.593L624.822 349.764L614.967 341.784Z" fill="black"/>
<path fill-rule="evenodd" clip-rule="evenodd" d="M550.681 341.784L628.568 245.656L638.371 253.593L560.536 349.764L550.681 341.784Z" fill="black"/>
<path fill-rule="evenodd" clip-rule="evenodd" d="M486.396 341.784L564.282 245.656L574.086 253.593L496.251 349.764L486.396 341.784Z" fill="black"/>
<path fill-rule="evenodd" clip-rule="evenodd" d="M422.109 341.784L499.996 245.656L509.799 253.593L431.964 349.764L422.109 341.784Z" fill="black"/>
<path fill-rule="evenodd" clip-rule="evenodd" d="M357.824 341.784L435.71 245.656L445.514 253.593L367.679 349.764L357.824 341.784Z" fill="black"/>
<path fill-rule="evenodd" clip-rule="evenodd" d="M293.54 341.784L371.426 245.656L381.23 253.593L303.395 349.764L293.54 341.784Z" fill="black"/>
<path fill-rule="evenodd" clip-rule="evenodd" d="M229.254 341.784L307.141 245.656L316.944 253.593L239.109 349.764L229.254 341.784Z" fill="black"/>
<path fill-rule="evenodd" clip-rule="evenodd" d="M164.969 341.784L242.855 245.656L252.659 253.593L174.824 349.764L164.969 341.784Z" fill="black"/>
<path fill-rule="evenodd" clip-rule="evenodd" d="M100.683 341.784L178.57 245.656L188.373 253.593L110.538 349.764L100.683 341.784Z" fill="black"/>
<path fill-rule="evenodd" clip-rule="evenodd" d="M36.3975 341.784L114.284 245.656L124.087 253.593L46.2525 349.764L36.3975 341.784Z" fill="black"/>
<path fill-rule="evenodd" clip-rule="evenodd" d="M-27.8906 341.784L49.9969 245.656L59.8004 253.593L-18.0345 349.764L-27.8906 341.784Z" fill="black"/>
<path fill-rule="evenodd" clip-rule="evenodd" d="M1548.45 240.041L1596.28 181.01L1602.3 185.885L1554.5 244.942L1548.45 240.041Z" fill="black"/>
<path fill-rule="evenodd" clip-rule="evenodd" d="M1479.84 244.871L1531.55 181.055L1538.06 186.326L1486.39 250.171L1479.84 244.871Z" fill="black"/>
<path fill-rule="evenodd" clip-rule="evenodd" d="M1411.24 249.701L1466.82 181.102L1473.82 186.768L1418.28 255.397L1411.24 249.701Z" fill="black"/>
<path fill-rule="evenodd" clip-rule="evenodd" d="M1342.64 254.531L1402.1 181.149L1409.58 187.209L1350.16 260.625L1342.64 254.531Z" fill="black"/>
<path fill-rule="evenodd" clip-rule="evenodd" d="M1274.04 259.361L1337.37 181.194L1345.34 187.65L1282.05 265.852L1274.04 259.361Z" fill="black"/>
<path fill-rule="evenodd" clip-rule="evenodd" d="M1205.43 264.191L1272.64 181.241L1281.1 188.092L1213.94 271.078L1205.43 264.191Z" fill="black"/>
<path fill-rule="evenodd" clip-rule="evenodd" d="M1136.83 269.021L1207.92 181.288L1216.86 188.533L1145.82 276.307L1136.83 269.021Z" fill="black"/>
<path fill-rule="evenodd" clip-rule="evenodd" d="M1068.23 273.854L1143.19 181.333L1152.62 188.975L1077.71 281.534L1068.23 273.854Z" fill="black"/>
<path fill-rule="evenodd" clip-rule="evenodd" d="M1000.68 277.498L1078.57 181.37L1088.37 189.307L1010.54 285.478L1000.68 277.498Z" fill="black"/>
<path fill-rule="evenodd" clip-rule="evenodd" d="M936.396 277.498L1014.28 181.37L1024.09 189.307L946.251 285.478L936.396 277.498Z" fill="black"/>
<path fill-rule="evenodd" clip-rule="evenodd" d="M872.11 277.498L949.996 181.37L959.8 189.307L881.965 285.478L872.11 277.498Z" fill="black"/>
<path fill-rule="evenodd" clip-rule="evenodd" d="M807.824 277.498L885.711 181.37L895.514 189.307L817.679 285.478L807.824 277.498Z" fill="black"/>
<path fill-rule="evenodd" clip-rule="evenodd" d="M743.538 277.498L821.425 181.37L831.228 189.307L753.393 285.478L743.538 277.498Z" fill="black"/>
<path fill-rule="evenodd" clip-rule="evenodd" d="M679.252 277.498L757.139 181.37L766.942 189.307L689.108 285.478L679.252 277.498Z" fill="black"/>
<path fill-rule="evenodd" clip-rule="evenodd" d="M614.967 277.498L692.853 181.37L702.657 189.307L624.822 285.478L614.967 277.498Z" fill="black"/>
<path fill-rule="evenodd" clip-rule="evenodd" d="M550.681 277.498L628.568 181.37L638.371 189.307L560.536 285.478L550.681 277.498Z" fill="black"/>
<path fill-rule="evenodd" clip-rule="evenodd" d="M486.396 277.498L564.282 181.37L574.086 189.307L496.251 285.478L486.396 277.498Z" fill="black"/>
<path fill-rule="evenodd" clip-rule="evenodd" d="M422.109 277.498L499.996 181.37L509.799 189.307L431.964 285.478L422.109 277.498Z" fill="black"/>
<path fill-rule="evenodd" clip-rule="evenodd" d="M357.824 277.498L435.71 181.37L445.514 189.307L367.679 285.478L357.824 277.498Z" fill="black"/>
<path fill-rule="evenodd" clip-rule="evenodd" d="M293.54 277.498L371.426 181.37L381.23 189.307L303.395 285.478L293.54 277.498Z" fill="black"/>
<path fill-rule="evenodd" clip-rule="evenodd" d="M229.254 277.498L307.141 181.37L316.944 189.307L239.109 285.478L229.254 277.498Z" fill="black"/>
<path fill-rule="evenodd" clip-rule="evenodd" d="M164.969 277.498L242.855 181.37L252.659 189.307L174.824 285.478L164.969 277.498Z" fill="black"/>
<path fill-rule="evenodd" clip-rule="evenodd" d="M100.683 277.498L178.57 181.37L188.373 189.307L110.538 285.478L100.683 277.498Z" fill="black"/>
<path fill-rule="evenodd" clip-rule="evenodd" d="M36.3975 277.498L114.284 181.37L124.087 189.307L46.2525 285.478L36.3975 277.498Z" fill="black"/>
<path fill-rule="evenodd" clip-rule="evenodd" d="M-27.8906 277.498L49.9969 181.37L59.8004 189.307L-18.0345 285.478L-27.8906 277.498Z" fill="black"/>
<path fill-rule="evenodd" clip-rule="evenodd" d="M1552.33 171.406L1596.68 116.681L1602.26 121.201L1557.95 175.951L1552.33 171.406Z" fill="black"/>
<path fill-rule="evenodd" clip-rule="evenodd" d="M1483.73 176.235L1531.95 116.728L1538.02 121.642L1489.84 181.177L1483.73 176.235Z" fill="black"/>
<path fill-rule="evenodd" clip-rule="evenodd" d="M1415.13 181.068L1467.22 116.776L1473.78 122.084L1421.72 186.406L1415.13 181.068Z" fill="black"/>
<path fill-rule="evenodd" clip-rule="evenodd" d="M1346.53 185.898L1402.49 116.821L1409.54 122.525L1353.61 191.632L1346.53 185.898Z" fill="black"/>
<path fill-rule="evenodd" clip-rule="evenodd" d="M1277.92 190.728L1337.77 116.868L1345.3 122.966L1285.5 196.861L1277.92 190.728Z" fill="black"/>
<path fill-rule="evenodd" clip-rule="evenodd" d="M1209.32 195.558L1273.04 116.913L1281.06 123.408L1217.38 202.087L1209.32 195.558Z" fill="black"/>
<path fill-rule="evenodd" clip-rule="evenodd" d="M1140.72 200.388L1208.31 116.96L1216.82 123.849L1149.27 207.313L1140.72 200.388Z" fill="black"/>
<path fill-rule="evenodd" clip-rule="evenodd" d="M1072.11 205.218L1143.58 117.007L1152.58 124.291L1081.16 212.542L1072.11 205.218Z" fill="black"/>
<path fill-rule="evenodd" clip-rule="evenodd" d="M1003.51 210.048L1078.86 117.052L1088.34 124.732L1013.04 217.768L1003.51 210.048Z" fill="black"/>
<path fill-rule="evenodd" clip-rule="evenodd" d="M936.396 213.213L1014.28 117.084L1024.09 125.021L946.251 221.193L936.396 213.213Z" fill="black"/>
<path fill-rule="evenodd" clip-rule="evenodd" d="M872.11 213.213L949.996 117.084L959.8 125.021L881.965 221.193L872.11 213.213Z" fill="black"/>
<path fill-rule="evenodd" clip-rule="evenodd" d="M807.824 213.213L885.711 117.084L895.514 125.021L817.679 221.193L807.824 213.213Z" fill="black"/>
<path fill-rule="evenodd" clip-rule="evenodd" d="M743.538 213.213L821.425 117.084L831.228 125.021L753.393 221.193L743.538 213.213Z" fill="black"/>
<path fill-rule="evenodd" clip-rule="evenodd" d="M679.252 213.213L757.139 117.084L766.942 125.021L689.108 221.193L679.252 213.213Z" fill="black"/>
<path fill-rule="evenodd" clip-rule="evenodd" d="M614.967 213.213L692.853 117.084L702.657 125.021L624.822 221.193L614.967 213.213Z" fill="black"/>
<path fill-rule="evenodd" clip-rule="evenodd" d="M550.681 213.213L628.568 117.084L638.371 125.021L560.536 221.193L550.681 213.213Z" fill="black"/>
<path fill-rule="evenodd" clip-rule="evenodd" d="M486.396 213.213L564.282 117.084L574.086 125.021L496.251 221.193L486.396 213.213Z" fill="black"/>
<path fill-rule="evenodd" clip-rule="evenodd" d="M422.109 213.213L499.996 117.084L509.799 125.021L431.964 221.193L422.109 213.213Z" fill="black"/>
<path fill-rule="evenodd" clip-rule="evenodd" d="M357.824 213.213L435.71 117.084L445.514 125.021L367.679 221.193L357.824 213.213Z" fill="black"/>
<path fill-rule="evenodd" clip-rule="evenodd" d="M293.54 213.213L371.426 117.084L381.23 125.021L303.395 221.193L293.54 213.213Z" fill="black"/>
<path fill-rule="evenodd" clip-rule="evenodd" d="M229.254 213.213L307.141 117.084L316.944 125.021L239.109 221.193L229.254 213.213Z" fill="black"/>
<path fill-rule="evenodd" clip-rule="evenodd" d="M164.969 213.213L242.855 117.084L252.659 125.021L174.824 221.193L164.969 213.213Z" fill="black"/>
<path fill-rule="evenodd" clip-rule="evenodd" d="M100.683 213.213L178.57 117.084L188.373 125.021L110.538 221.193L100.683 213.213Z" fill="black"/>
<path fill-rule="evenodd" clip-rule="evenodd" d="M36.3975 213.213L114.284 117.084L124.087 125.021L46.2525 221.193L36.3975 213.213Z" fill="black"/>
<path fill-rule="evenodd" clip-rule="evenodd" d="M-27.8906 213.213L49.9969 117.084L59.8004 125.021L-18.0345 221.193L-27.8906 213.213Z" fill="black"/>
<path fill-rule="evenodd" clip-rule="evenodd" d="M1556.22 102.772L1597.07 52.3547L1602.22 56.5183L1561.39 106.957L1556.22 102.772Z" fill="black"/>
<path fill-rule="evenodd" clip-rule="evenodd" d="M1487.62 107.602L1532.35 52.3997L1537.98 56.9597L1493.28 112.185L1487.62 107.602Z" fill="black"/>
<path fill-rule="evenodd" clip-rule="evenodd" d="M1419.02 112.432L1467.62 52.447L1473.74 57.4013L1425.17 117.412L1419.02 112.432Z" fill="black"/>
<path fill-rule="evenodd" clip-rule="evenodd" d="M1350.42 117.262L1402.89 52.4941L1409.5 57.8427L1357.06 122.641L1350.42 117.262Z" fill="black"/>
<path fill-rule="evenodd" clip-rule="evenodd" d="M1281.81 122.092L1338.17 52.5392L1345.26 58.2842L1288.94 127.867L1281.81 122.092Z" fill="black"/>
<path fill-rule="evenodd" clip-rule="evenodd" d="M1213.21 126.922L1273.44 52.5862L1281.02 58.7255L1220.83 133.093L1213.21 126.922Z" fill="black"/>
<path fill-rule="evenodd" clip-rule="evenodd" d="M1144.6 131.752L1208.71 52.6333L1216.78 59.1669L1152.72 138.322L1144.6 131.752Z" fill="black"/>
<path fill-rule="evenodd" clip-rule="evenodd" d="M1076 136.582L1143.98 52.6783L1152.54 59.6083L1084.6 143.548L1076 136.582Z" fill="black"/>
<path fill-rule="evenodd" clip-rule="evenodd" d="M1007.4 141.412L1079.25 52.7256L1088.3 60.0499L1016.49 148.777L1007.4 141.412Z" fill="black"/>
<path fill-rule="evenodd" clip-rule="evenodd" d="M938.794 146.244L1014.53 52.7727L1024.06 60.4913L948.377 154.003L938.794 146.244Z" fill="black"/>
<path fill-rule="evenodd" clip-rule="evenodd" d="M872.11 148.927L949.996 52.7983L959.8 60.7355L881.965 156.907L872.11 148.927Z" fill="black"/>
<path fill-rule="evenodd" clip-rule="evenodd" d="M807.824 148.927L885.711 52.7983L895.514 60.7355L817.679 156.907L807.824 148.927Z" fill="black"/>
<path fill-rule="evenodd" clip-rule="evenodd" d="M743.538 148.927L821.425 52.7983L831.228 60.7355L753.393 156.907L743.538 148.927Z" fill="black"/>
<path fill-rule="evenodd" clip-rule="evenodd" d="M679.252 148.927L757.139 52.7983L766.942 60.7355L689.108 156.907L679.252 148.927Z" fill="black"/>
<path fill-rule="evenodd" clip-rule="evenodd" d="M614.967 148.927L692.853 52.7983L702.657 60.7355L624.822 156.907L614.967 148.927Z" fill="black"/>
<path fill-rule="evenodd" clip-rule="evenodd" d="M550.681 148.927L628.568 52.7983L638.371 60.7355L560.536 156.907L550.681 148.927Z" fill="black"/>
<path fill-rule="evenodd" clip-rule="evenodd" d="M486.396 148.927L564.282 52.7983L574.086 60.7355L496.251 156.907L486.396 148.927Z" fill="black"/>
<path fill-rule="evenodd" clip-rule="evenodd" d="M422.109 148.927L499.996 52.7983L509.799 60.7355L431.964 156.907L422.109 148.927Z" fill="black"/>
<path fill-rule="evenodd" clip-rule="evenodd" d="M357.824 148.927L435.71 52.7983L445.514 60.7355L367.679 156.907L357.824 148.927Z" fill="black"/>
<path fill-rule="evenodd" clip-rule="evenodd" d="M293.54 148.927L371.426 52.7983L381.23 60.7355L303.395 156.907L293.54 148.927Z" fill="black"/>
<path fill-rule="evenodd" clip-rule="evenodd" d="M229.254 148.927L307.141 52.7983L316.944 60.7355L239.109 156.907L229.254 148.927Z" fill="black"/>
<path fill-rule="evenodd" clip-rule="evenodd" d="M164.969 148.927L242.855 52.7983L252.659 60.7355L174.824 156.907L164.969 148.927Z" fill="black"/>
<path fill-rule="evenodd" clip-rule="evenodd" d="M100.683 148.927L178.57 52.7983L188.373 60.7355L110.538 156.907L100.683 148.927Z" fill="black"/>
<path fill-rule="evenodd" clip-rule="evenodd" d="M36.3975 148.927L114.284 52.7983L124.087 60.7355L46.2525 156.907L36.3975 148.927Z" fill="black"/>
<path fill-rule="evenodd" clip-rule="evenodd" d="M-27.8906 148.927L49.9969 52.7983L59.8004 60.7355L-18.0345 156.907L-27.8906 148.927Z" fill="black"/>
<path fill-rule="evenodd" clip-rule="evenodd" d="M1491.51 38.9663L1532.74 -11.9268L1537.93 -7.72404L1496.73 43.192L1491.51 38.9663Z" fill="black"/>
<path fill-rule="evenodd" clip-rule="evenodd" d="M1422.9 43.7963L1468.02 -11.8805L1473.69 -7.28257L1428.61 48.4206L1422.9 43.7963Z" fill="black"/>
<path fill-rule="evenodd" clip-rule="evenodd" d="M1354.3 48.6264L1403.29 -11.8339L1409.46 -6.84106L1360.5 53.6471L1354.3 48.6264Z" fill="black"/>
<path fill-rule="evenodd" clip-rule="evenodd" d="M1285.7 53.4585L1338.56 -11.7877L1345.22 -6.39967L1292.39 58.8756L1285.7 53.4585Z" fill="black"/>
<path fill-rule="evenodd" clip-rule="evenodd" d="M1217.1 58.2883L1273.83 -11.7413L1280.98 -5.9584L1224.27 64.1019L1217.1 58.2883Z" fill="black"/>
<path fill-rule="evenodd" clip-rule="evenodd" d="M1148.49 63.1183L1209.11 -11.6951L1216.74 -5.51699L1156.16 69.3283L1148.49 63.1183Z" fill="black"/>
<path fill-rule="evenodd" clip-rule="evenodd" d="M1079.89 67.9484L1144.38 -11.6485L1152.5 -5.07527L1088.05 74.5569L1079.89 67.9484Z" fill="black"/>
<path fill-rule="evenodd" clip-rule="evenodd" d="M1011.28 72.7784L1079.65 -11.6022L1088.26 -4.63382L1019.94 79.7834L1011.28 72.7784Z" fill="black"/>
<path fill-rule="evenodd" clip-rule="evenodd" d="M942.682 77.6085L1014.93 -11.5556L1024.02 -4.19233L951.823 85.012L942.682 77.6085Z" fill="black"/>
<path fill-rule="evenodd" clip-rule="evenodd" d="M874.079 82.4384L950.2 -11.5093L959.78 -3.75091L883.711 90.2384L874.079 82.4384Z" fill="black"/>
<path fill-rule="evenodd" clip-rule="evenodd" d="M807.824 84.6413L885.711 -11.4882L895.514 -3.54972L817.679 92.6213L807.824 84.6413Z" fill="black"/>
<path fill-rule="evenodd" clip-rule="evenodd" d="M743.538 84.6413L821.425 -11.4882L831.228 -3.54972L753.393 92.6213L743.538 84.6413Z" fill="black"/>
<path fill-rule="evenodd" clip-rule="evenodd" d="M679.252 84.6413L757.139 -11.4882L766.942 -3.54972L689.108 92.6213L679.252 84.6413Z" fill="black"/>
<path fill-rule="evenodd" clip-rule="evenodd" d="M614.967 84.6413L692.853 -11.4882L702.657 -3.54972L624.822 92.6213L614.967 84.6413Z" fill="black"/>
<path fill-rule="evenodd" clip-rule="evenodd" d="M550.681 84.6413L628.568 -11.4882L638.371 -3.54972L560.536 92.6213L550.681 84.6413Z" fill="black"/>
<path fill-rule="evenodd" clip-rule="evenodd" d="M486.396 84.6413L564.282 -11.4882L574.086 -3.54972L496.251 92.6213L486.396 84.6413Z" fill="black"/>
<path fill-rule="evenodd" clip-rule="evenodd" d="M422.109 84.6413L499.996 -11.4882L509.799 -3.54972L431.964 92.6213L422.109 84.6413Z" fill="black"/>
<path fill-rule="evenodd" clip-rule="evenodd" d="M357.824 84.6413L435.71 -11.4882L445.514 -3.54972L367.679 92.6213L357.824 84.6413Z" fill="black"/>
<path fill-rule="evenodd" clip-rule="evenodd" d="M293.54 84.6413L371.426 -11.4882L381.23 -3.54972L303.395 92.6213L293.54 84.6413Z" fill="black"/>
<path fill-rule="evenodd" clip-rule="evenodd" d="M229.254 84.6413L307.141 -11.4882L316.944 -3.54972L239.109 92.6213L229.254 84.6413Z" fill="black"/>
<path fill-rule="evenodd" clip-rule="evenodd" d="M164.969 84.6413L242.855 -11.4882L252.659 -3.54972L174.824 92.6213L164.969 84.6413Z" fill="black"/>
<path fill-rule="evenodd" clip-rule="evenodd" d="M100.683 84.6413L178.57 -11.4882L188.373 -3.54972L110.538 92.6213L100.683 84.6413Z" fill="black"/>
<path fill-rule="evenodd" clip-rule="evenodd" d="M36.3975 84.6413L114.284 -11.4882L124.087 -3.54972L46.2525 92.6213L36.3975 84.6413Z" fill="black"/>
<path fill-rule="evenodd" clip-rule="evenodd" d="M-27.8906 84.6413L49.9969 -11.4882L59.8004 -3.54972L-18.0345 92.6213L-27.8906 84.6413Z" fill="black"/>
<path fill-rule="evenodd" clip-rule="evenodd" d="M1152.38 -5.51698L1209.51 -76.0223L1216.7 -70.1998L1159.61 0.337086L1152.38 -5.51698Z" fill="black"/>
<path fill-rule="evenodd" clip-rule="evenodd" d="M1083.78 -0.687007L1144.78 -75.9761L1152.45 -69.7586L1091.49 5.56413L1083.78 -0.687007Z" fill="black"/>
<path fill-rule="evenodd" clip-rule="evenodd" d="M1015.17 4.14324L1080.05 -75.9297L1088.22 -69.3171L1023.38 10.7915L1015.17 4.14324Z" fill="black"/>
<path fill-rule="evenodd" clip-rule="evenodd" d="M946.568 8.97354L1015.32 -75.8832L1023.98 -68.8756L955.268 16.019L946.568 8.97354Z" fill="black"/>
<path fill-rule="evenodd" clip-rule="evenodd" d="M877.965 13.8037L950.595 -75.8369L959.736 -68.4342L887.156 21.2463L877.965 13.8037Z" fill="black"/>
<path fill-rule="evenodd" clip-rule="evenodd" d="M809.362 18.6338L885.869 -75.7903L895.499 -67.9927L819.044 26.4736L809.362 18.6338Z" fill="black"/>
<path fill-rule="evenodd" clip-rule="evenodd" d="M743.538 20.3549L821.425 -75.7739L831.228 -67.8354L753.393 28.3362L743.538 20.3549Z" fill="black"/>
<path fill-rule="evenodd" clip-rule="evenodd" d="M679.252 20.3549L757.139 -75.7739L766.942 -67.8354L689.108 28.3362L679.252 20.3549Z" fill="black"/>
<path fill-rule="evenodd" clip-rule="evenodd" d="M614.967 20.3549L692.853 -75.7739L702.657 -67.8354L624.822 28.3362L614.967 20.3549Z" fill="black"/>
<path fill-rule="evenodd" clip-rule="evenodd" d="M550.681 20.3549L628.568 -75.7739L638.371 -67.8354L560.536 28.3362L550.681 20.3549Z" fill="black"/>
<path fill-rule="evenodd" clip-rule="evenodd" d="M486.396 20.3549L564.282 -75.7739L574.086 -67.8354L496.251 28.3362L486.396 20.3549Z" fill="black"/>
<path fill-rule="evenodd" clip-rule="evenodd" d="M422.109 20.3549L499.996 -75.7739L509.799 -67.8354L431.964 28.3362L422.109 20.3549Z" fill="black"/>
<path fill-rule="evenodd" clip-rule="evenodd" d="M357.824 20.3549L435.71 -75.7739L445.514 -67.8354L367.679 28.3362L357.824 20.3549Z" fill="black"/>
<path fill-rule="evenodd" clip-rule="evenodd" d="M293.54 20.3549L371.426 -75.7739L381.23 -67.8354L303.395 28.3362L293.54 20.3549Z" fill="black"/>
<path fill-rule="evenodd" clip-rule="evenodd" d="M229.254 20.3549L307.141 -75.7739L316.944 -67.8354L239.109 28.3362L229.254 20.3549Z" fill="black"/>
<path fill-rule="evenodd" clip-rule="evenodd" d="M164.969 20.3549L242.855 -75.7739L252.659 -67.8354L174.824 28.3362L164.969 20.3549Z" fill="black"/>
<path fill-rule="evenodd" clip-rule="evenodd" d="M100.683 20.3549L178.57 -75.7739L188.373 -67.8354L110.538 28.3362L100.683 20.3549Z" fill="black"/>
<path fill-rule="evenodd" clip-rule="evenodd" d="M36.3975 20.3549L114.284 -75.7739L124.087 -67.8354L46.2525 28.3362L36.3975 20.3549Z" fill="black"/>
<path fill-rule="evenodd" clip-rule="evenodd" d="M-27.8906 20.3549L49.9969 -75.7739L59.8004 -67.8354L-18.0345 28.3362L-27.8906 20.3549Z" fill="black"/>
</g>
<defs>
<clipPath id="clip0_555_11">
<rect width="1920" height="1080" fill="white" transform="translate(-180 -178)"/>
</clipPath>
</defs>
</svg>
