<?xml version="1.0" encoding="utf-8"?>
<!-- Generated by IcoMoon.io -->
<!DOCTYPE svg PUBLIC "-//W3C//DTD SVG 1.1//EN" "http://www.w3.org/Graphics/SVG/1.1/DTD/svg11.dtd">
<svg version="1.1" xmlns="http://www.w3.org/2000/svg" xmlns:xlink="http://www.w3.org/1999/xlink" width="30" height="32" viewBox="0 0 30 32">
<path fill="#444" d="M0 27.104q0 2.016 1.984 3.456t4.8 1.44 4.832-1.44 1.984-3.456q0-2.048-1.984-3.488t-4.832-1.44q-0.032 0-0.096 0t-0.096 0.032q-0.768-0.704-0.768-1.536t0.768-1.696q2.272-0.128 3.84-1.76t1.568-3.872q0-0.896-0.224-1.6 0.896-0.16 1.408-0.448v-3.68q-1.536 1.024-3.488 1.024h-0.224q-1.472-0.992-3.232-0.992-2.4 0-4.096 1.664t-1.696 4.032q0 1.504 0.768 2.784t2.048 2.048q-0.896 1.152-0.896 2.368 0 1.152 0.832 2.4-1.472 0.672-2.336 1.76t-0.864 2.4zM3.872 13.28q0-1.056 0.704-1.824t1.6-0.736q0.96 0 1.632 0.736t0.672 1.824-0.672 1.792-1.632 0.768q-0.928 0-1.6-0.768t-0.704-1.792zM3.968 27.104q0-0.864 0.832-1.472t1.984-0.576 2.016 0.576 0.832 1.472q0 0.832-0.832 1.44t-2.016 0.608-1.984-0.608-0.832-1.44zM14.56 2.592q0-1.088 0.768-1.856t1.824-0.736 1.856 0.736 0.768 1.856-0.768 1.856-1.856 0.768-1.824-0.768-0.768-1.856zM15.168 23.296v-15.328h4.288v15.328h-4.288zM20.96 11.232h1.76v9.12q0.128 0.96 0.64 1.632t1.088 1.024 1.216 0.512 0.96 0.224h0.64q0.864 0 1.536-0.256 0.736-0.256 0.96-0.512l0.224-0.288 0.064-3.168q-1.344 0.416-2.080 0.416-0.16 0-0.288-0.032-0.736-0.096-0.864-0.512l-0.128-0.416q0-0.096-0.032-0.128v-7.616h2.912v-3.264h-2.912v-2.976h-3.936v2.976h-1.76v3.264z"></path>
</svg>
